<?xml version="1.0" encoding="UTF-8" standalone="no"?>
<svg
   width="64"
   height="64"
   viewBox="0 0 64 64"
   version="1.1"
   preserveAspectRatio="xMidYMid"
   id="svg8"
   sodipodi:docname="medium.svg"
   inkscape:version="1.1.2 (0a00cf5339, 2022-02-04)"
   xmlns:inkscape="http://www.inkscape.org/namespaces/inkscape"
   xmlns:sodipodi="http://sodipodi.sourceforge.net/DTD/sodipodi-0.dtd"
   xmlns="http://www.w3.org/2000/svg"
   xmlns:svg="http://www.w3.org/2000/svg">
  <defs
     id="defs12">
    <inkscape:path-effect
       effect="powerclip"
       id="path-effect2049"
       is_visible="true"
       lpeversion="1"
       inverse="true"
       flatten="false"
       hide_clip="false"
       message="Use fill-rule evenodd on &lt;b&gt;fill and stroke&lt;/b&gt; dialog if no flatten result after convert clip to paths." />
    <clipPath
       clipPathUnits="userSpaceOnUse"
       id="clipPath2045">
      <path
         d="m 61.090896,85.61658 c 0.21368,-2.111144 -0.5914,-4.197776 -2.167808,-5.618656 L 42.865244,60.653696 v -2.889592 h 49.8596 l 38.538816,84.520636 33.88205,-84.520636 h 47.53121 v 2.889592 l -13.72945,13.163708 c -1.18363,0.902232 -1.77077,2.385112 -1.5255,3.852792 v 96.721144 c -0.24528,1.46768 0.34188,2.95056 1.5255,3.85279 l 13.4083,13.16371 v 2.8896 h -67.44294 v -2.8896 l 13.89003,-13.48477 c 1.36492,-1.36453 1.36492,-1.76587 1.36492,-3.85279 V 95.890696 l -38.61911,98.085674 h -5.2188 L 71.367912,95.890696 v 65.738274 c -0.37488,2.76382 0.54304,5.54638 2.488968,7.54505 l 18.065072,21.91276 v 2.88959 H 40.697436 v -2.88959 l 18.065072,-21.91276 c 1.93176,-2.00198 2.796152,-4.803 2.328388,-7.54505 z"
         fill="#ffffff"
         id="path2047"
         style="display:none;stroke-width:1" />
      <path
         id="lpe_path-effect2049"
         style="stroke-width:1"
         class="powerclip"
         d="M -5,-5 H 261 V 261 H -5 Z m 66.090896,90.61658 v 76.01239 c 0.467764,2.74205 -0.396628,5.54307 -2.328388,7.54505 l -18.065072,21.91276 v 2.88959 h 51.224516 v -2.88959 L 73.85688,169.17402 c -1.945928,-1.99867 -2.863848,-4.78123 -2.488968,-7.54505 V 95.890696 l 44.961958,98.085674 h 5.2188 l 38.61911,-98.085674 v 78.179584 c 0,2.08692 0,2.48826 -1.36492,3.85279 l -13.89003,13.48477 v 2.8896 h 67.44294 v -2.8896 l -13.4083,-13.16371 c -1.18362,-0.90223 -1.77078,-2.38511 -1.5255,-3.85279 V 77.670196 c -0.24527,-1.46768 0.34187,-2.95056 1.5255,-3.852792 L 212.67692,60.653696 V 57.764104 H 165.14571 L 131.26366,142.28474 92.724844,57.764104 h -49.8596 v 2.889592 l 16.057844,19.344228 c 1.576408,1.42088 2.381488,3.507512 2.167808,5.618656 z" />
    </clipPath>
  </defs>
  <sodipodi:namedview
     id="namedview10"
     pagecolor="#ffffff"
     bordercolor="#666666"
     borderopacity="1.0"
     inkscape:pageshadow="2"
     inkscape:pageopacity="0.0"
     inkscape:pagecheckerboard="0"
     showgrid="false"
     width="64px"
     inkscape:zoom="11.361143"
     inkscape:cx="26.713862"
     inkscape:cy="37.804295"
     inkscape:window-width="1994"
     inkscape:window-height="1392"
     inkscape:window-x="2745"
     inkscape:window-y="427"
     inkscape:window-maximized="0"
     inkscape:current-layer="svg8" />
  <g
     id="g6"
     transform="matrix(0.25,0,0,0.25,0.03440443,0.00581814)">
    <path
       fill="#12100e"
       x="0"
       y="0"
       width="256"
       height="256"
       id="rect2"
       sodipodi:type="rect"
       clip-path="url(#clipPath2045)"
       inkscape:path-effect="#path-effect2049"
       d="M 0,0 H 256 V 256 H 0 Z"
       style="fill:#000000" />
  </g>
</svg>
