<?xml version="1.0" encoding="UTF-8" standalone="no"?>
<svg
   width="34"
   height="34"
   viewBox="0 0 34 34"
   version="1.1"
   id="svg190"
   sodipodi:docname="socials.svg"
   inkscape:version="1.1.1 (3bf5ae0d25, 2021-09-20)"
   xmlns:inkscape="http://www.inkscape.org/namespaces/inkscape"
   xmlns:sodipodi="http://sodipodi.sourceforge.net/DTD/sodipodi-0.dtd"
   xmlns="http://www.w3.org/2000/svg"
   xmlns:svg="http://www.w3.org/2000/svg">
  <sodipodi:namedview
     id="namedview11"
     pagecolor="#505050"
     bordercolor="#ffffff"
     borderopacity="1"
     inkscape:pageshadow="0"
     inkscape:pageopacity="0"
     inkscape:pagecheckerboard="1"
     showgrid="false"
     inkscape:object-paths="true"
     inkscape:snap-intersection-paths="true"
     inkscape:snap-smooth-nodes="true"
     inkscape:zoom="7.4766144"
     inkscape:cx="13.508788"
     inkscape:cy="43.201372"
     inkscape:current-layer="svg190" />
  <style
     id="style2">
      g {
         display: none;
      }

      g:target {
         display:initial;
         color: white;
      }
   </style>
  <defs
     id="defs194" />
  <g
     id="linkedin"
     fill="currentColor">
    <path
       d="m 34,2.5 v 29 A 2.5,2.5 0 0 1 31.5,34 H 2.5 A 2.5,2.5 0 0 1 0,31.5 V 2.5 A 2.5,2.5 0 0 1 2.5,0 h 29 A 2.5,2.5 0 0 1 34,2.5 Z M 10,13 H 5 v 16 h 5 z M 10.45,7.5 A 2.88,2.88 0 0 0 7.59,4.6 H 7.5 a 2.9,2.9 0 0 0 0,5.8 v 0 A 2.88,2.88 0 0 0 10.45,7.59 Z M 29,19.28 C 29,14.47 25.94,12.6 22.9,12.6 a 5.7,5.7 0 0 0 -5.06,2.58 H 17.7 V 13 H 13 v 16 h 5 v -8.51 a 3.32,3.32 0 0 1 3,-3.58 h 0.19 c 1.59,0 2.77,1 2.77,3.52 V 29 h 5 z"
       id="path5" />
  </g>
  <g
     id="twitter"
     fill="currentColor"
     transform="matrix(1.3605332,0,0,1.3605332,0.52969968,0.4541264)">
    <path
       d="m 23.643,4.937 c -0.835,0.37 -1.732,0.62 -2.675,0.733 0.962,-0.576 1.7,-1.49 2.048,-2.578 -0.9,0.534 -1.897,0.922 -2.958,1.13 -0.85,-0.904 -2.06,-1.47 -3.4,-1.47 C 14.086,2.752 12,4.838 12,7.412 12,7.776 12.042,8.13 12.12,8.472 8.247,8.277 4.816,6.422 2.518,3.604 c -0.4,0.69 -0.63,1.49 -0.63,2.342 0,1.616 0.823,3.043 2.072,3.878 C 3.196,9.799 2.478,9.59 1.85,9.241 v 0.06 c 0,2.257 1.605,4.14 3.737,4.568 -0.392,0.106 -0.803,0.162 -1.227,0.162 -0.3,0 -0.593,-0.028 -0.877,-0.082 0.593,1.85 2.313,3.198 4.352,3.234 -1.595,1.25 -3.604,1.995 -5.786,1.995 -0.376,0 -0.747,-0.022 -1.112,-0.065 2.062,1.323 4.51,2.093 7.14,2.093 8.57,0 13.255,-7.098 13.255,-13.254 0,-0.2 -0.005,-0.402 -0.014,-0.602 0.91,-0.658 1.7,-1.477 2.323,-2.41 z"
       id="path8" />
  </g>
  <g
     id="github"
     fill="currentColor">
    <path
       fill-rule="evenodd"
       d="m 17.000001,1.8575216 c -8.5778355,0 -15.5254925,6.947657 -15.5254925,15.5254914 0,6.870028 4.4441716,12.672681 10.6155545,14.729808 0.776273,0.135847 1.067377,-0.329918 1.067377,-0.737461 0,-0.368731 -0.01941,-1.591363 -0.01941,-2.891623 C 9.2372537,29.201791 8.2280969,27.532801 7.9175871,26.659493 7.7429254,26.213134 6.9860576,24.835247 6.3262244,24.466516 5.7828321,24.175414 5.0065576,23.45736 6.3068175,23.437953 c 1.2226322,-0.0194 2.0959412,1.125597 2.387044,1.591362 1.3972945,2.348232 3.6290835,1.688398 4.5217985,1.280854 0.135848,-1.009157 0.543392,-1.688397 0.98975,-2.076534 -3.454421,-0.388138 -7.0640974,-1.727212 -7.0640974,-7.665712 0,-1.688396 0.6016128,-3.085691 1.5913628,-4.172475 -0.155255,-0.388137 -0.6986472,-1.9795 0.1552548,-4.1142547 0,0 1.3002598,-0.4075441 4.2695098,1.5913631 1.242038,-0.3493235 2.561705,-0.5239858 3.881371,-0.5239858 1.319667,0 2.639335,0.1746623 3.881374,0.5239858 2.96925,-2.018314 4.26951,-1.5913631 4.26951,-1.5913631 0.853902,2.1347547 0.31051,3.7261177 0.155256,4.1142547 0.98975,1.086784 1.591362,2.464672 1.591362,4.172475 0,5.957909 -3.629084,7.277574 -7.083504,7.665712 0.562798,0.485171 1.047968,1.4167 1.047968,2.872214 0,2.076535 -0.0194,3.745525 -0.0194,4.269511 0,0.407543 0.291104,0.892716 1.067379,0.737461 A 15.550719,15.550719 0 0 0 32.525492,17.383013 C 32.525489,8.8051786 25.577832,1.8575216 17.000001,1.8575216 Z"
       id="path11"
       style="stroke-width:1" />
  </g>
  <g
     id="web"
     transform="translate(55.766379,-13.500081)">
    <path
       style="fill:#000000;stroke-width:1"
       d="m -40.016931,47.466357 c -4.160401,-0.271742 -7.799313,-1.95813 -10.854288,-5.030218 -2.642177,-2.656974 -4.244451,-5.832426 -4.737086,-9.388151 -0.129706,-0.936218 -0.158074,-1.392582 -0.158074,-2.54299 0,-1.150211 0.02834,-1.606274 0.158023,-2.542997 0.492984,-3.56073 2.093665,-6.733137 4.737139,-9.388593 2.521288,-2.532716 5.35156,-4.085051 8.63133,-4.734078 1.967158,-0.389283 4.235066,-0.446752 6.147872,-0.155801 2.584104,0.39307 5.015456,1.375749 7.077425,2.86048 2.339948,1.684892 4.325463,3.989093 5.551004,6.441953 0.917521,1.836372 1.447797,3.750895 1.653228,5.968854 0.05864,0.632832 0.05864,2.467519 0,3.100357 -0.381953,4.123794 -1.975743,7.503377 -4.936874,10.468519 -1.754514,1.756883 -3.552545,2.961946 -5.715108,3.830311 -1.391192,0.558633 -2.957959,0.929681 -4.63314,1.097249 -0.579066,0.05792 -2.142153,0.06603 -2.921449,0.01508 z m 2.674561,-2.368523 c 0.611315,-0.233817 1.205806,-0.646933 1.823872,-1.267424 1.37031,-1.375693 2.49998,-3.567778 3.240772,-6.288642 l 0.13753,-0.505111 -0.108959,-0.02301 c -0.300584,-0.06345 -3.692917,-0.20166 -4.980379,-0.202913 l -0.529692,-5.19e-4 v 4.217446 4.217445 l 0.07814,-0.02377 c 0.043,-0.01304 0.195413,-0.06866 0.338716,-0.123466 z m -2.474699,-4.09864 -0.0089,-4.171554 -1.215679,0.0061 c -1.65695,0.0084 -4.31273,0.1273 -4.381289,0.196062 -0.01325,0.01329 0.03548,0.247749 0.108501,0.520702 0.941821,3.518296 2.759258,6.325658 4.741699,7.324416 0.277235,0.139671 0.648756,0.291204 0.720868,0.294029 0.03474,0.0013 0.04177,-0.843233 0.03474,-4.169852 z m -4.273891,3.239705 c -1.271108,-1.555722 -2.294171,-3.493479 -3.025097,-5.729763 -0.120657,-0.369195 -0.25658,-0.80843 -0.302027,-0.976077 -0.08077,-0.297935 -0.085,-0.304793 -0.187486,-0.304118 -0.226431,0.0013 -1.930591,0.220985 -2.814102,0.362443 -1.004911,0.160914 -1.233045,0.205214 -1.233045,0.239416 0,0.04688 0.305662,0.554484 0.602122,0.999885 1.473274,2.213506 3.479887,3.970216 5.823618,5.098359 0.415296,0.199896 1.2728,0.572291 1.329566,0.577396 0.01478,0.0013 -0.07221,-0.119069 -0.193526,-0.267539 z m 11.794641,-0.320231 c 2.581995,-1.264269 4.683922,-3.15607 6.206989,-5.586456 0.114967,-0.18346 0.209031,-0.348663 0.209031,-0.367126 0,-0.03436 -0.749759,-0.226328 -1.371984,-0.351289 -0.684315,-0.137422 -2.370637,-0.385288 -2.622642,-0.385482 -0.08345,-7e-5 -0.09201,0.0207 -0.204002,0.49634 -0.242132,1.028104 -0.578523,2.106677 -0.953416,3.056818 -0.39591,1.00342 -1.083714,2.317871 -1.60805,3.073116 -0.182032,0.262202 -0.206092,0.305931 -0.168243,0.305931 0.0102,0 0.240678,-0.108818 0.512322,-0.241844 z m 7.388566,-7.99051 c 0,-0.0061 0.06133,-0.174666 0.136206,-0.374483 0.42402,-1.131004 0.701612,-2.328582 0.843225,-3.637839 0.0581,-0.537368 0.05783,-2.308676 -4.57e-4,-2.821676 -0.110891,-0.975869 -0.294041,-1.889848 -0.543414,-2.711797 -0.118647,-0.30283 -0.222559,-0.46108 -0.222559,-0.46108 v 0 c 0,0 -0.999388,0.269001 -1.498141,0.366945 -0.66309,0.130213 -1.640862,0.285187 -2.53261,0.401387 -0.370897,0.04831 -0.680957,0.09448 -0.689032,0.102581 -0.0082,0.0082 0.0097,0.278526 0.03935,0.600967 0.106105,1.152019 0.134906,2.042426 0.115714,3.577069 -0.01963,1.566988 -0.06395,2.283595 -0.215727,3.488589 -0.04588,0.364021 -0.07244,0.671265 -0.05906,0.682763 0.01325,0.0115 0.313489,0.05598 0.666901,0.09885 1.269528,0.154012 2.912096,0.440191 3.594941,0.626332 0.232092,0.06327 0.364703,0.08558 0.364703,0.06137 z m -27.26038,-0.143302 c 0.874734,-0.206567 2.330182,-0.455679 3.589341,-0.61432 0.324757,-0.0409 0.594697,-0.07832 0.599856,-0.08315 0.0054,-0.0046 -0.02192,-0.203066 -0.06005,-0.44059 -0.232421,-1.445012 -0.296744,-2.344775 -0.296091,-4.141812 5.5e-4,-1.579765 0.01937,-1.945343 0.158557,-3.060416 0.0391,-0.313321 0.06617,-0.574513 0.06018,-0.580428 -0.0061,-0.0061 -0.292227,-0.04461 -0.636096,-0.08591 -1.50442,-0.180903 -2.91579,-0.413588 -3.777212,-0.622761 l -0.40805,-0.09908 -0.118618,0.369315 c -0.240908,0.750063 -0.440491,1.718062 -0.546618,2.651046 -0.06978,0.613505 -0.05964,2.364474 0.01733,2.99586 0.0836,0.685613 0.206653,1.34273 0.368606,1.968198 0.23112,0.892631 0.560437,1.828867 0.643302,1.828867 0.02559,0 0.208105,-0.03819 0.405597,-0.08479 z m 20.500883,-0.916721 c 0.03915,-0.196573 0.160979,-1.26658 0.213127,-1.872404 0.123283,-1.43241 0.123257,-3.535094 0,-4.973869 -0.07814,-0.911539 -0.08671,-0.96568 -0.152951,-0.965074 -0.03097,2.81e-4 -0.275125,0.01534 -0.542575,0.03328 -1.285849,0.08655 -4.327372,0.21007 -5.173035,0.21007 h -0.436473 v 3.687541 3.687544 l 1.154897,0.02377 c 1.93393,0.03988 3.967601,0.148261 4.877336,0.259924 0.02243,0.0028 0.04924,-0.03814 0.05979,-0.0908 z m -13.22977,-0.04353 c 1.024745,-0.05713 2.313699,-0.100536 3.742722,-0.125996 l 1.346084,-0.02403 -0.0089,-3.678569 -0.0089,-3.678561 -0.277873,-0.0074 c -2.115024,-0.05639 -4.033618,-0.136374 -5.342425,-0.222698 -0.32115,-0.02122 -0.589457,-0.03295 -0.596249,-0.02615 -0.02243,0.02249 -0.120531,1.115255 -0.160673,1.788997 -0.05273,0.885275 -0.02167,3.317851 0.05294,4.128011 0.05233,0.569347 0.16888,1.541671 0.21644,1.805644 l 0.0209,0.116129 0.19531,-0.02019 c 0.10743,-0.01125 0.47665,-0.03597 0.820517,-0.05516 z m 5.079939,-14.311626 c 0.0061,-3.037608 -0.0033,-4.673764 -0.02523,-4.673764 -0.06012,0 -0.463873,0.161374 -0.689361,0.275527 -1.944561,0.984492 -3.750111,3.710906 -4.777501,7.214105 -0.176298,0.601156 -0.417404,1.565822 -0.396581,1.586711 0.05077,0.05092 5.553576,0.310149 5.84516,0.275333 0.02294,-0.0028 0.03775,-1.594653 0.04353,-4.677912 z m 4.330321,4.608324 c 1.312397,-0.05033 2.719737,-0.125766 3.276237,-0.175637 0.174105,-0.01559 0.251816,-0.03678 0.251816,-0.06856 0,-0.07012 -0.224647,-1.027201 -0.347058,-1.478583 -0.934711,-3.446728 -2.62863,-6.155614 -4.522815,-7.232812 -0.201861,-0.114799 -0.66827,-0.321109 -0.852509,-0.377103 l -0.07814,-0.02377 v 4.713853 l -3.5e-5,4.713847 0.442903,-0.0089 c 0.24361,-0.0046 1.066953,-0.03295 1.829674,-0.06219 z m -12.222584,-0.651594 c 0.112756,-0.469202 0.330506,-1.224795 0.52417,-1.818865 0.738414,-2.265049 1.751208,-4.205224 3.023881,-5.792689 0.157436,-0.196394 0.278303,-0.35707 0.268585,-0.35707 -0.06173,0 -0.921572,0.366311 -1.39679,0.595087 -1.107712,0.533258 -1.937261,1.056715 -2.872494,1.812579 -1.509734,1.220185 -2.866378,2.929449 -3.788123,4.77275 l -0.188225,0.376391 0.129909,0.03374 c 0.616979,0.160172 2.012611,0.386055 3.343124,0.541079 0.99689,0.116155 0.884259,0.135352 0.95595,-0.162984 z m 19.174508,0.09399 c 1.196282,-0.171804 2.578985,-0.453179 2.981935,-0.606829 l 0.09072,-0.03464 -0.161362,-0.322838 c -0.678136,-1.356778 -1.616936,-2.645225 -2.727317,-3.743046 -0.939443,-0.928828 -1.795706,-1.579988 -2.954386,-2.246727 -0.519468,-0.298924 -1.482141,-0.776765 -1.509527,-0.749294 -0.0089,0.0089 0.116172,0.217662 0.277719,0.464125 1.193287,1.820521 2.11076,4.194307 2.682123,6.939455 l 0.09675,0.464815 0.193578,-0.02249 c 0.106461,-0.01227 0.56986,-0.07651 1.029774,-0.142586 z"
       id="web9999"
       sodipodi:nodetypes="ssssssssssscssssssscsscccsssscsscssscsssssssscssssssssssssscccsssssssssssssssccsssscsssssscscssscccssccsscccsssssscssssssssscssssscccsccscssssscssssscsssssscss" />
  </g>
</svg>
