<?xml version="1.0" encoding="UTF-8" standalone="no"?>
<svg
   width="34"
   height="34"
   viewBox="0 0 34 34"
   version="1.1"
   id="svg190"
   xmlns="http://www.w3.org/2000/svg"
   xmlns:svg="http://www.w3.org/2000/svg">
  <style
     id="style2">
      g {
         display: none;
      }

      g:target {
         display:initial;
         color: white;
      }
   </style>
  <defs
     id="defs194" />
  <g
     id="linkedin"
     fill="currentColor">
    <path
       d="m 34,2.5 v 29 A 2.5,2.5 0 0 1 31.5,34 H 2.5 A 2.5,2.5 0 0 1 0,31.5 V 2.5 A 2.5,2.5 0 0 1 2.5,0 h 29 A 2.5,2.5 0 0 1 34,2.5 Z M 10,13 H 5 v 16 h 5 z M 10.45,7.5 A 2.88,2.88 0 0 0 7.59,4.6 H 7.5 a 2.9,2.9 0 0 0 0,5.8 v 0 A 2.88,2.88 0 0 0 10.45,7.59 Z M 29,19.28 C 29,14.47 25.94,12.6 22.9,12.6 a 5.7,5.7 0 0 0 -5.06,2.58 H 17.7 V 13 H 13 v 16 h 5 v -8.51 a 3.32,3.32 0 0 1 3,-3.58 h 0.19 c 1.59,0 2.77,1 2.77,3.52 V 29 h 5 z"
       id="path5" />
  </g>
  <g
     id="twitter"
     fill="currentColor"
     transform="matrix(1.3605332,0,0,1.3605332,0.52969968,0.4541264)">
    <path
       d="m 23.643,4.937 c -0.835,0.37 -1.732,0.62 -2.675,0.733 0.962,-0.576 1.7,-1.49 2.048,-2.578 -0.9,0.534 -1.897,0.922 -2.958,1.13 -0.85,-0.904 -2.06,-1.47 -3.4,-1.47 C 14.086,2.752 12,4.838 12,7.412 12,7.776 12.042,8.13 12.12,8.472 8.247,8.277 4.816,6.422 2.518,3.604 c -0.4,0.69 -0.63,1.49 -0.63,2.342 0,1.616 0.823,3.043 2.072,3.878 C 3.196,9.799 2.478,9.59 1.85,9.241 v 0.06 c 0,2.257 1.605,4.14 3.737,4.568 -0.392,0.106 -0.803,0.162 -1.227,0.162 -0.3,0 -0.593,-0.028 -0.877,-0.082 0.593,1.85 2.313,3.198 4.352,3.234 -1.595,1.25 -3.604,1.995 -5.786,1.995 -0.376,0 -0.747,-0.022 -1.112,-0.065 2.062,1.323 4.51,2.093 7.14,2.093 8.57,0 13.255,-7.098 13.255,-13.254 0,-0.2 -0.005,-0.402 -0.014,-0.602 0.91,-0.658 1.7,-1.477 2.323,-2.41 z"
       id="path8" />
  </g>
  <g
     id="github"
     fill="currentColor">
    <path
       fill-rule="evenodd"
       d="m 17.000001,1.8575216 c -8.5778355,0 -15.5254925,6.947657 -15.5254925,15.5254914 0,6.870028 4.4441716,12.672681 10.6155545,14.729808 0.776273,0.135847 1.067377,-0.329918 1.067377,-0.737461 0,-0.368731 -0.01941,-1.591363 -0.01941,-2.891623 C 9.2372537,29.201791 8.2280969,27.532801 7.9175871,26.659493 7.7429254,26.213134 6.9860576,24.835247 6.3262244,24.466516 5.7828321,24.175414 5.0065576,23.45736 6.3068175,23.437953 c 1.2226322,-0.0194 2.0959412,1.125597 2.387044,1.591362 1.3972945,2.348232 3.6290835,1.688398 4.5217985,1.280854 0.135848,-1.009157 0.543392,-1.688397 0.98975,-2.076534 -3.454421,-0.388138 -7.0640974,-1.727212 -7.0640974,-7.665712 0,-1.688396 0.6016128,-3.085691 1.5913628,-4.172475 -0.155255,-0.388137 -0.6986472,-1.9795 0.1552548,-4.1142547 0,0 1.3002598,-0.4075441 4.2695098,1.5913631 1.242038,-0.3493235 2.561705,-0.5239858 3.881371,-0.5239858 1.319667,0 2.639335,0.1746623 3.881374,0.5239858 2.96925,-2.018314 4.26951,-1.5913631 4.26951,-1.5913631 0.853902,2.1347547 0.31051,3.7261177 0.155256,4.1142547 0.98975,1.086784 1.591362,2.464672 1.591362,4.172475 0,5.957909 -3.629084,7.277574 -7.083504,7.665712 0.562798,0.485171 1.047968,1.4167 1.047968,2.872214 0,2.076535 -0.0194,3.745525 -0.0194,4.269511 0,0.407543 0.291104,0.892716 1.067379,0.737461 A 15.550719,15.550719 0 0 0 32.525492,17.383013 C 32.525489,8.8051786 25.577832,1.8575216 17.000001,1.8575216 Z"
       id="path11"
       style="stroke-width:1" />
  </g>
</svg>
