<?xml version="1.0" encoding="UTF-8" standalone="no"?>
<svg
   width="128px"
   height="128px"
   viewBox="0 0 256 256"
   preserveAspectRatio="xMidYMid"
   xmlns="http://www.w3.org/2000/svg"
   xmlns:svg="http://www.w3.org/2000/svg">
  <g
     id="g62">
    <path
       id="polygon56"
       d="M 0,0 V 128 256 H 128 256 V 128 0 H 128 Z m 194.10352,117.05469 c 4.5619,-0.0167 9.69463,0.36701 12.46289,1.05273 6.50159,1.62539 11.45865,4.51096 16.00976,9.22461 2.35683,2.51937 5.85228,7.11184 6.13672,8.20899 0.0813,0.32508 -11.05344,7.80092 -17.79883,11.98632 -0.24381,0.16254 -1.21926,-0.89413 -2.3164,-2.51953 -3.29143,-4.79492 -6.74481,-6.86671 -12.02735,-7.23242 -7.76127,-0.52826 -12.75935,3.53624 -12.71875,10.32227 0,1.99111 0.28496,3.16952 1.09766,4.79492 1.70667,3.53524 4.87647,5.64778 14.83203,9.95508 18.32635,7.88318 26.16873,13.08492 31.04492,20.48046 5.44508,8.24889 6.66458,21.41403 2.9668,31.20704 -4.06349,10.64635 -14.14263,17.87988 -28.32422,20.27734 -4.38857,0.77206 -14.79026,0.65022 -19.50391,-0.20312 -10.28064,-1.82858 -20.0329,-6.90814 -26.04687,-13.57227 -2.35682,-2.60064 -6.94851,-9.38738 -6.66406,-9.875 0.1219,-0.16254 1.17901,-0.81311 2.35742,-1.50391 1.13778,-0.65016 5.44432,-3.12755 9.50781,-5.48437 l 7.35547,-4.26758 1.54297,2.27539 c 2.15365,3.29143 6.86844,7.80315 9.71289,9.30664 8.16761,4.30731 19.38185,3.6977 24.9082,-1.25976 2.35683,-2.15365 3.33203,-4.39023 3.33203,-7.68164 0,-2.96637 -0.36602,-4.26509 -1.91015,-6.5 -1.99111,-2.84444 -6.05343,-5.24214 -17.59375,-10.24024 -13.20635,-5.68889 -18.89639,-9.22441 -24.09766,-14.83203 -3.00699,-3.2508 -5.85088,-8.45285 -7.0293,-12.80078 -0.97523,-3.61651 -1.21932,-12.67685 -0.44726,-16.33399 2.72254,-12.75937 12.35286,-21.65951 26.25,-24.30078 1.69143,-0.32 4.22379,-0.47437 6.96094,-0.48437 z m -92.63086,1.22851 c 24.58412,-0.0406 44.86051,0.0406 44.98242,0.20313 0.16254,0.12191 0.28515,4.87751 0.28515,10.5664 v 10.2793 h -16.66211 -16.66015 v 47.33985 47.33984 H 101.63477 89.849609 V 186.67188 139.33203 H 73.189453 56.529297 l 0.08203,-10.48242 0.121094,-10.44336 z"
       style="fill:#007acc;fill-opacity:1" />
  </g>
</svg>
