<?xml version="1.0" encoding="UTF-8" standalone="no"?>
<!-- Created with Inkscape (http://www.inkscape.org/) -->

<svg
   width="478"
   height="46"
   viewBox="0 0 126.47083 12.170833"
   version="1.1"
   id="svg5"
   inkscape:version="1.1.1 (3bf5ae0d25, 2021-09-20)"
   sodipodi:docname="plaifactory-logo.svg"
   xmlns:inkscape="http://www.inkscape.org/namespaces/inkscape"
   xmlns:sodipodi="http://sodipodi.sourceforge.net/DTD/sodipodi-0.dtd"
   xmlns="http://www.w3.org/2000/svg"
   xmlns:svg="http://www.w3.org/2000/svg">
  <sodipodi:namedview
     id="namedview7"
     pagecolor="#505050"
     bordercolor="#ffffff"
     borderopacity="1"
     inkscape:pageshadow="0"
     inkscape:pageopacity="0"
     inkscape:pagecheckerboard="1"
     inkscape:document-units="mm"
     showgrid="false"
     fit-margin-top="0"
     fit-margin-left="0"
     fit-margin-right="0"
     fit-margin-bottom="0"
     units="px"
     showguides="false"
     inkscape:guide-bbox="true"
     inkscape:object-paths="true"
     inkscape:snap-page="true"
     inkscape:snap-intersection-paths="true"
     inkscape:snap-smooth-nodes="true"
     inkscape:snap-midpoints="true"
     inkscape:zoom="32"
     inkscape:cx="415.125"
     inkscape:cy="25.09375"
     inkscape:current-layer="layer1">
    <sodipodi:guide
       position="107.15624,0.31220132"
       orientation="0,-1"
       id="guide158" />
    <sodipodi:guide
       position="111.57405,4.5785812"
       orientation="0.86515477,0.50150496"
       id="guide160" />
    <sodipodi:guide
       position="57.494854,2.4285213"
       orientation="-0.93557191,0.35313624"
       id="guide459" />
    <sodipodi:guide
       position="63.731403,6.2720898"
       orientation="-0.94256136,-0.33403306"
       id="guide624" />
    <sodipodi:guide
       position="58.208335,4.7115692"
       orientation="0,-1"
       id="guide798" />
    <sodipodi:guide
       position="60.111934,9.3620111"
       orientation="1,0"
       id="guide1256" />
    <sodipodi:guide
       position="107.15624,4.5451112"
       orientation="0,-1"
       id="guide2581" />
  </sodipodi:namedview>
  <defs
     id="defs2" />
  <g
     inkscape:label="Layer 1"
     inkscape:groupmode="layer"
     id="layer1"
     transform="translate(-81.324184,-92.409308)">
    <path
       style="fill:#ffffff;stroke-width:1"
       d="m 152.16877,104.15638 c -1.48424,-0.52973 -2.24111,-1.10693 -3.0456,-2.3226 -0.65377,-0.9879 -0.72711,-1.33189 -0.72711,-3.41036 0,-2.14836 0.0569,-2.39267 0.8055,-3.45891 2.09787,-2.98799 6.43254,-3.43423 8.94584,-0.92093 l 1.05687,1.05687 -1.08305,0.52455 -1.08305,0.52455 -0.83572,-0.70321 c -0.45964,-0.38677 -1.11787,-0.77403 -1.46273,-0.86058 -0.9251,-0.23219 -2.39812,0.34838 -3.14947,1.24131 -1.74331,2.0718 -0.87757,5.51733 1.59102,6.33204 1.16989,0.3861 2.15226,0.15098 3.08796,-0.73907 l 0.72943,-0.69383 1.1028,0.53412 1.10281,0.53412 -1.04483,1.04483 c -1.58659,1.58659 -3.84461,2.08304 -5.99067,1.3171 z m 22.68562,-0.23564 c -2.33524,-1.13108 -3.30729,-2.73973 -3.30729,-5.47329 0,-3.74875 2.19322,-5.93651 5.95313,-5.93829 2.51133,-10e-4 4.20527,0.99262 5.37712,3.15467 0.592,1.09221 0.592,4.47503 0,5.56724 -1.08044,1.99341 -2.76318,3.05527 -5.10058,3.21863 -1.30233,0.091 -1.84522,-0.007 -2.92238,-0.52896 z m 4.50249,-2.14467 c 1.99683,-1.30836 2.00769,-5.34176 0.0179,-6.64551 -2.74398,-1.79793 -5.98242,0.77381 -5.33307,4.23514 0.19097,1.01794 1.26385,2.44287 2.11401,2.8077 0.75248,0.32291 2.4173,0.11627 3.20115,-0.39733 z M 81.324184,98.44745 v -5.82083 l 3.108854,0.006 c 3.735135,0.007 5.003723,0.43339 5.708614,1.91884 0.941275,1.98359 0.274706,4.16653 -1.521354,4.98227 -0.726085,0.32977 -1.7051,0.49169 -2.996634,0.4956 l -1.91823,0.006 v 2.11667 2.11666 h -1.190625 -1.190625 z m 5.979662,-0.73166 c 0.647645,-0.43244 0.931007,-1.36054 0.604622,-1.98032 C 87.44548,94.8563 87.175842,94.75179 85.35908,94.74733 l -1.653646,-0.004 v 1.5875 1.5875 l 1.653646,-0.004 c 0.909505,-0.002 1.78465,-0.0915 1.944766,-0.19844 z m 5.662005,0.73166 v -5.82083 h 1.190625 1.190625 v 4.7625 4.7625 h 2.513542 2.513537 v 1.05833 1.05833 h -3.704162 -3.704167 z m 9.254449,4.44565 c 0.28939,-0.77162 1.2851,-3.36747 2.21271,-5.76857 l 1.68655,-4.36562 1.55908,-0.0739 1.55909,-0.0739 2.0858,5.49788 c 1.1472,3.02384 2.1422,5.64671 2.21112,5.82861 0.09,0.23756 -0.25236,0.33073 -1.21529,0.33073 -1.33663,0 -1.34155,-0.003 -1.66031,-1.06709 l -0.31971,-1.0671 -2.64443,0.0749 -2.64443,0.0749 -0.30998,0.92604 c -0.29515,0.88176 -0.3754,0.92987 -1.67817,1.00607 l -1.36819,0.08 z m 6.56803,-5.17325 c -0.45466,-1.27331 -0.90634,-2.40805 -1.00372,-2.52165 -0.0974,-0.1136 -0.59946,0.9282 -1.11574,2.3151 l -0.93869,2.52165 h 1.94241 1.94241 z m 6.93169,0.7276 v -5.82083 h 1.19062 1.19063 v 5.82083 5.82083 h -1.19063 -1.19062 z m 10.84791,0 v -5.82083 h 4.10105 4.10104 v 1.05833 1.05833 h -2.91042 -2.91042 v 1.32292 1.32292 h 2.77813 2.77812 v 1.05833 1.05833 h -2.77812 -2.77813 v 2.38125 2.38125 h -1.19062 -1.19063 z m 9.76902,3.24115 c 0.54883,-1.41883 1.5619,-4.03821 2.25126,-5.82084 l 1.25338,-3.24114 h 1.5225 1.5225 l 2.15942,5.65634 c 1.18768,3.11099 2.1217,5.98498 2.1217,5.98498 h -2.52444 l -0.75,-2.11632 h -2.4328 -2.64143 l -0.83133,2.11632 -1.32437,3.4e-4 h -1.32426 z m 6.74723,-1.820028 -1.64806,-4.650442 -1.72021,4.6503 z m 21.05459,-0.362842 v -4.7625 h -1.71979 -1.7198 V 93.6849 92.62657 h 4.63021 4.63021 v 1.05833 1.05833 h -1.71979 -1.71979 v 4.7625 4.7625 h -1.19063 -1.19062 z m 21.96041,-1.05833 v -5.82083 h 3.05121 c 3.37965,0 4.45141,0.28971 5.36408,1.44998 1.24971,1.58875 0.96193,3.79987 -0.66959,5.1447 0,0 -0.3865,0.325388 -1.07154,0.564855 v 0 l 1.26161,2.150355 c 0.62457,1.06456 1.27611,2.22233 1.33638,2.33148 l -1.38518,-0.003 -1.40467,-0.004 -1.13623,-2.11296 c -1.08304,-2.01404 -1.17672,-2.11295 -1.17672,-2.11295 h -1.7881 v 2.11667 2.11666 h -1.19062 -1.19063 z m 6.13073,-0.96705 c 0.60246,-0.54522 0.62427,-1.61425 0.046,-2.25326 -0.33656,-0.37191 -0.8263,-0.48386 -2.11666,-0.48386 h -1.67879 v 1.5875 1.5875 h 1.63282 c 1.14805,0 1.77646,-0.13 2.11666,-0.43788 z m 8.68594,4.35819 v -2.4297 l -2.11667,-3.27458 c -1.16416,-1.80102 -2.11666,-3.33325 -2.11666,-3.40496 0,-0.0717 0.61887,-0.0944 1.37526,-0.0504 l 1.37526,0.08 1.2681,2.11584 c 0.69746,1.16371 1.35851,2.14389 1.46901,2.17818 0.1105,0.0343 0.79622,-0.94446 1.52383,-2.17498 l 1.32291,-2.23731 1.41949,-0.007 c 1.41059,-0.007 1.41707,-0.003 1.0335,0.5883 -0.2123,0.32742 -1.23803,1.91657 -2.27939,3.53144 l -1.89339,2.93612 v 2.2894 2.28939 h -1.19062 -1.19063 z"
       id="path39"
       sodipodi:nodetypes="ssscscccscssscccsscscscscsssssscccscccccccccccccccccccccccccccccccccccccscccccccccccccccccccccccccccccccccccccccccccccsscccsccccccccscccccccccccccccccccccccsssccscccsccccccccsscccsccccssscssscccscccccc" />
  </g>
</svg>
