<?xml version="1.0" encoding="UTF-8" standalone="no"?>
<svg
   id="Layer_1"
   data-name="Layer 1"
   viewBox="0 0 306.7 92.2"
   version="1.1"
   sodipodi:docname="zerolens-white.svg"
   inkscape:version="1.1.1 (3bf5ae0d25, 2021-09-20)"
   xmlns:inkscape="http://www.inkscape.org/namespaces/inkscape"
   xmlns:sodipodi="http://sodipodi.sourceforge.net/DTD/sodipodi-0.dtd"
   xmlns="http://www.w3.org/2000/svg"
   xmlns:svg="http://www.w3.org/2000/svg"
   xmlns:rdf="http://www.w3.org/1999/02/22-rdf-syntax-ns#"
   xmlns:cc="http://creativecommons.org/ns#"
   xmlns:dc="http://purl.org/dc/elements/1.1/">
  <sodipodi:namedview
     id="namedview27"
     pagecolor="#505050"
     bordercolor="#ffffff"
     borderopacity="1"
     inkscape:pageshadow="0"
     inkscape:pageopacity="0"
     inkscape:pagecheckerboard="1"
     showgrid="false"
     inkscape:zoom="3.6713399"
     inkscape:cx="153.35001"
     inkscape:cy="46.03224"
     inkscape:current-layer="Layer_1" />
  <defs
     id="defs4">
    <style
       id="style2">.cls-1{fill:#1c64f2;}</style>
  </defs>
  <title
     id="title6">zerolens_logo_white</title>
  <path
     class="cls-1"
     d="M135.6,18a21.2,21.2,0,1,0,21.2,21.2A21.21,21.21,0,0,0,135.6,18Zm0,31.8a10.6,10.6,0,1,1,10.6-10.6A10.61,10.61,0,0,1,135.6,49.8Z"
     id="path8"
     style="fill:#ffffff" />
  <circle
     class="cls-1"
     cx="135.6"
     cy="81.6"
     r="10.6"
     id="circle10"
     style="fill:#ffffff" />
  <path
     class="cls-1"
     d="M32.8,26.7c-.9,1-2.2,2.4-3.7,4.1s-3.2,3.6-5,5.7-3.6,4.3-5.4,6.6-3.4,4.5-4.9,6.6H33.2v9.4H0V52.4c1.1-1.8,2.3-3.8,3.8-5.9s3.1-4.2,4.7-6.4,3.3-4.2,4.9-6.2,3.1-3.8,4.5-5.4H.9V19H32.7v7.7Z"
     id="path12"
     style="fill:#ffffff" />
  <path
     class="cls-1"
     d="M37.7,39.4a23.82,23.82,0,0,1,1.6-9.3,19.83,19.83,0,0,1,4.3-6.7,17.47,17.47,0,0,1,6.1-4A19.51,19.51,0,0,1,56.8,18c5.7,0,10.2,1.7,13.5,5.2s5,8.6,5,15.4a17,17,0,0,1-.1,2.2c-.1.8-.1,1.5-.2,2.1H49.4a7.69,7.69,0,0,0,3.3,5.6,12.9,12.9,0,0,0,7.8,2.1,30.78,30.78,0,0,0,6.1-.6,29.79,29.79,0,0,0,4.9-1.4L73,57.8a15.43,15.43,0,0,1-2.4.9,24.44,24.44,0,0,1-3.4.8c-1.2.2-2.6.4-4,.6a30.24,30.24,0,0,1-4.3.2,24.69,24.69,0,0,1-9.4-1.6A17.51,17.51,0,0,1,39,47.7,25.32,25.32,0,0,1,37.7,39.4ZM64.4,35a12.61,12.61,0,0,0-.5-2.8,7,7,0,0,0-1.3-2.4A7.87,7.87,0,0,0,60.4,28a6.71,6.71,0,0,0-3.3-.7,8.11,8.11,0,0,0-3.3.6,6.58,6.58,0,0,0-2.3,1.7,6.77,6.77,0,0,0-1.4,2.5,13.65,13.65,0,0,0-.7,2.9Z"
     id="path14"
     style="fill:#ffffff" />
  <path
     class="cls-1"
     d="M108.3,29.1c-1-.3-2.2-.5-3.6-.8a20.58,20.58,0,0,0-4.4-.4c-.7,0-1.6.1-2.6.2a18.14,18.14,0,0,0-2.2.4V59.1H84.1V21.2a59.68,59.68,0,0,1,7.2-2,44.18,44.18,0,0,1,9.3-1,18.55,18.55,0,0,1,2.2.1l2.6.3a23.81,23.81,0,0,1,2.6.5,21.78,21.78,0,0,1,2.2.6Z"
     id="path16"
     style="fill:#ffffff" />
  <path
     class="cls-1"
     d="M180.8,59.9a28,28,0,0,1-8-1.1,12.89,12.89,0,0,1-4.9-2.8,8.76,8.76,0,0,1-2.4-4.3,25.22,25.22,0,0,1-.6-5.8V1.8L176.1,0V43.7a21.3,21.3,0,0,0,.2,2.7,4,4,0,0,0,.9,2.1,4.72,4.72,0,0,0,1.9,1.4,9,9,0,0,0,3.3.7Z"
     id="path18"
     style="fill:#ffffff" />
  <path
     class="cls-1"
     d="M186.9,39.4a23.82,23.82,0,0,1,1.6-9.3,19.83,19.83,0,0,1,4.3-6.7,17.47,17.47,0,0,1,6.1-4A19.51,19.51,0,0,1,206,18c5.7,0,10.2,1.7,13.5,5.2s5,8.6,5,15.4a17,17,0,0,1-.1,2.2c-.1.8-.1,1.5-.2,2.1H198.4a7.69,7.69,0,0,0,3.3,5.6,12.9,12.9,0,0,0,7.8,2.1,30.78,30.78,0,0,0,6.1-.6,29.79,29.79,0,0,0,4.9-1.4l1.5,9.2a15.43,15.43,0,0,1-2.4.9,24.44,24.44,0,0,1-3.4.8l-4,.6a30.24,30.24,0,0,1-4.3.2,24.69,24.69,0,0,1-9.4-1.6,17.51,17.51,0,0,1-10.5-11A32,32,0,0,1,186.9,39.4ZM213.6,35a12.61,12.61,0,0,0-.5-2.8,7,7,0,0,0-1.3-2.4,7.87,7.87,0,0,0-2.2-1.8,6.71,6.71,0,0,0-3.3-.7,8.11,8.11,0,0,0-3.3.6,6.58,6.58,0,0,0-2.3,1.7,6.77,6.77,0,0,0-1.4,2.5,13.65,13.65,0,0,0-.7,2.9Z"
     id="path20"
     style="fill:#ffffff" />
  <path
     class="cls-1"
     d="M233.3,20.4a55.66,55.66,0,0,1,7.5-1.6,58.57,58.57,0,0,1,9.6-.7,23.38,23.38,0,0,1,8.5,1.3,12.61,12.61,0,0,1,5.4,3.8,14.27,14.27,0,0,1,2.8,5.8,28.77,28.77,0,0,1,.8,7.5V59.1H256.5V37.9c0-3.7-.5-6.2-1.4-7.8s-2.8-2.3-5.4-2.3a23.48,23.48,0,0,0-2.6.1q-1.35.15-2.4.3V59.1H233.3V20.4Z"
     id="path22"
     style="fill:#ffffff" />
  <path
     class="cls-1"
     d="M289.7,51a11.11,11.11,0,0,0,4.4-.6,2.33,2.33,0,0,0,1.3-2.4,3,3,0,0,0-1.7-2.4,25.42,25.42,0,0,0-5.1-2.3,36.29,36.29,0,0,1-4.8-2.1,14.42,14.42,0,0,1-3.7-2.6,12.11,12.11,0,0,1-2.4-3.5,12.5,12.5,0,0,1-.8-5,10.64,10.64,0,0,1,4.2-8.9c2.8-2.2,6.6-3.3,11.5-3.3a39.65,39.65,0,0,1,7,.6,30.33,30.33,0,0,1,5.3,1.4l-2,8.8a27,27,0,0,0-4.3-1.2,21.36,21.36,0,0,0-5.2-.5c-3.6,0-5.3,1-5.3,3a3.73,3.73,0,0,0,.2,1.2,2.84,2.84,0,0,0,.9,1c.5.3,1.1.7,1.9,1.1s1.8.8,3,1.3a47.47,47.47,0,0,1,6.2,2.7,15.11,15.11,0,0,1,3.8,2.9,9.4,9.4,0,0,1,2,3.5,14.63,14.63,0,0,1,.6,4.4,10.21,10.21,0,0,1-4.5,9q-4.5,3-12.6,3a37,37,0,0,1-8.9-.9,33.68,33.68,0,0,1-4.9-1.5l1.9-9.2a30.88,30.88,0,0,0,5.9,1.8A26,26,0,0,0,289.7,51Z"
     id="path24"
     style="fill:#ffffff" />
  <metadata
     id="metadata743">
    <rdf:RDF>
      <cc:Work
         rdf:about="">
        <dc:title>zerolens_logo_white</dc:title>
      </cc:Work>
    </rdf:RDF>
  </metadata>
</svg>
