<?xml version="1.0" encoding="UTF-8" standalone="no"?>
<!-- Created with Inkscape (http://www.inkscape.org/) -->

<svg
   width="197.38719"
   height="202.94322"
   viewBox="0 0 52.225363 53.695396"
   version="1.1"
   id="svg141149"
   sodipodi:docname="curveball-logo-white.svg"
   inkscape:version="1.1.1 (3bf5ae0d25, 2021-09-20)"
   xmlns:inkscape="http://www.inkscape.org/namespaces/inkscape"
   xmlns:sodipodi="http://sodipodi.sourceforge.net/DTD/sodipodi-0.dtd"
   xmlns="http://www.w3.org/2000/svg"
   xmlns:svg="http://www.w3.org/2000/svg">
  <sodipodi:namedview
     id="namedview6428"
     pagecolor="#505050"
     bordercolor="#ffffff"
     borderopacity="1"
     inkscape:pageshadow="0"
     inkscape:pageopacity="0"
     inkscape:pagecheckerboard="1"
     showgrid="false"
     inkscape:zoom="2"
     inkscape:cx="128.5"
     inkscape:cy="120"
     inkscape:current-layer="g136782"
     fit-margin-top="0"
     fit-margin-left="0"
     fit-margin-right="0"
     fit-margin-bottom="0" />
  <defs
     id="defs141146">
    <filter
       style="color-interpolation-filters:sRGB"
       id="filter131462"
       x="-0.040685218"
       y="-0.12667006"
       width="1.0813704"
       height="1.253332">
      <feGaussianBlur
         stdDeviation="1.4858075"
         id="feGaussianBlur131464" />
    </filter>
    <filter
       style="color-interpolation-filters:sRGB"
       id="filter140564"
       x="-0.36465964"
       y="-0.36465964"
       width="1.7293193"
       height="1.7293193">
      <feGaussianBlur
         stdDeviation="41.552682"
         id="feGaussianBlur140566" />
    </filter>
    <clipPath
       clipPathUnits="userSpaceOnUse"
       id="clipPath2235">
      <circle
         r="220.95764"
         cy="-7337.9995"
         cx="-11915.122"
         id="circle2237"
         style="opacity:0.632;vector-effect:none;fill:#fdfdfb;fill-opacity:1;fill-rule:evenodd;stroke:#000000;stroke-width:64.2319;stroke-linecap:butt;stroke-linejoin:miter;stroke-miterlimit:4;stroke-dasharray:none;stroke-dashoffset:0;stroke-opacity:0" />
    </clipPath>
  </defs>
  <g
     id="layer1"
     transform="translate(-114.53858,-60.972168)">
    <g
       id="g136782"
       transform="matrix(0.26458333,0,0,0.26458333,-556.3982,-734.88588)">
      <g
         transform="matrix(0.41041213,0.15596539,-0.15596539,0.41041213,6550.0749,8147.575)"
         id="g136742"
         style="stroke-width:0.359454">
        <g
           transform="matrix(1.1948613,-2.2966316e-8,2.2966316e-8,1.1948613,3314.4609,1403.2591)"
           id="g136740"
           style="stroke-width:0.359454">
          <path
             id="path6510"
             style="color:#000000;fill:#fdfdfb;fill-rule:evenodd;stroke-width:0.615702;-inkscape-stroke:none"
             d="m 52.648438,50.544922 c -0.374285,-0.0045 -0.748673,-2.16e-4 -1.121094,0.01367 C 42.58924,50.891943 34.280883,56.465587 30.90625,65.345701 26.406746,77.185835 32.368837,90.455607 44.208984,94.955076 56.048969,99.454443 69.318882,93.494359 73.818359,81.654295 78.317843,69.814214 72.355563,56.54441 60.515625,52.04492 c -2.590026,-0.984274 -5.2472,-1.46861 -7.867187,-1.5 z m -0.0332,2.810547 c 2.299093,0.02654 4.631432,0.451458 6.902344,1.314453 10.38131,3.945121 15.620892,15.605032 11.675777,25.986328 C 67.248252,91.037529 55.586392,96.275199 45.205078,92.330078 34.823764,88.384957 29.586142,76.725029 33.53125,66.34375 36.490086,58.557778 43.788697,53.664703 51.632812,53.369141 c 0.326839,-0.01232 0.653981,-0.01746 0.982422,-0.01367 z m -0.05469,3.363281 c -0.273651,-0.0035 -0.546147,-7.7e-5 -0.818359,0.0098 -1.888115,0.06827 -3.731859,0.465876 -5.464844,1.140625 0.886971,0.556846 1.521921,1.225189 1.894531,2.013671 0.58806,1.184749 0.582523,2.565407 -0.01758,4.144532 l -1.484375,3.908203 c -0.14683,0.386386 -0.165468,0.705883 -0.05078,0.960937 0.131255,0.261351 0.367152,0.454355 0.703125,0.582032 l 0.830078,0.318359 -1.396485,3.677734 -0.832031,-0.316406 c -0.335973,-0.12768 -0.640409,-0.137516 -0.912109,-0.0293 -0.255138,0.114534 -0.456681,0.365567 -0.603516,0.751953 l -1.484375,3.904297 c -0.600101,1.579125 -1.511984,2.618028 -2.738281,3.113282 -0.803429,0.342542 -1.726163,0.421846 -2.761719,0.248046 1.824758,3.566211 4.929064,6.493583 8.980469,8.033204 4.051866,1.539795 8.318189,1.413522 12.050781,-0.04102 -0.902002,-0.561491 -1.552738,-1.238092 -1.939453,-2.03711 -0.571322,-1.178366 -0.557133,-2.55564 0.04297,-4.134765 l 1.482422,-3.90625 c 0.146835,-0.386387 0.156822,-0.709285 0.02539,-0.970703 -0.114503,-0.255005 -0.339808,-0.446542 -0.675781,-0.574219 l -0.859375,-0.324219 1.400391,-3.68164 0.853515,0.328125 c 0.335973,0.127675 0.633541,0.134047 0.888672,0.01953 0.2717,-0.108219 0.482071,-0.355801 0.628906,-0.742188 l 1.484375,-3.90625 c 0.600102,-1.579125 1.505293,-2.619476 2.714844,-3.121093 0.616337,-0.256022 1.296135,-0.364122 2.041016,-0.326172 0.24484,0.01247 0.499063,0.04759 0.757812,0.0918 -1.824759,-3.566238 -4.929064,-6.493612 -8.98047,-8.033233 C 56.421961,57.098899 54.4761,56.743511 52.560548,56.71875 Z m -10.509766,3.548828 c -2.340935,1.824022 -4.232838,4.288477 -5.367187,7.273438 -1.133649,2.983118 -1.365557,6.082743 -0.828125,9 0.599438,0.225352 1.108567,0.238078 1.529297,0.03516 0.41739,-0.187426 0.737496,-0.576093 0.960937,-1.164063 L 39.572266,72.1875 c 0.351118,-0.923943 0.760295,-1.567827 1.224609,-1.929688 0.487443,-0.372293 1.101575,-0.523674 1.84375,-0.453124 -0.601723,-0.440139 -0.96434,-0.951848 -1.087891,-1.53711 -0.100421,-0.595697 0.02388,-1.355354 0.375,-2.279297 l 1.226563,-3.226562 c 0.223444,-0.58797 0.242077,-1.090537 0.05469,-1.507813 -0.17867,-0.428442 -0.566624,-0.756855 -1.158203,-0.986328 z m 25.976563,10.007813 c -0.257171,-0.0061 -0.491235,0.04241 -0.703125,0.144531 -0.417214,0.187493 -0.737497,0.574139 -0.960938,1.162109 l -1.226562,3.226563 c -0.351125,0.92396 -0.77037,1.571063 -1.257813,1.943359 -0.464307,0.36184 -1.068202,0.50814 -1.810547,0.4375 0.6019,0.440206 0.954267,0.958991 1.054688,1.554688 0.123551,0.585262 0.0093,1.33973 -0.341797,2.263671 l -1.226562,3.22461 c -0.223437,0.58797 -0.2403,1.09047 -0.05273,1.507812 0.181005,0.434075 0.572948,0.766262 1.177735,0.996094 h 0.002 c 2.339565,-1.824018 4.225526,-4.293699 5.359375,-7.277344 1.133651,-2.983125 1.365556,-6.082743 0.828125,-9 -1.16e-4,-6.27e-4 1.15e-4,-0.0013 0,-0.002 h -0.002 C 68.5648,70.342068 68.284521,70.281423 68.02735,70.275344 Z"
             transform="matrix(4.9571802,-1.8838344,1.8838344,4.9571802,-13586.061,-7833.054)" />
        </g>
      </g>
      <path
         id="path136744"
         style="color:#000000;fill:#ffffff;fill-opacity:1;stroke:none;stroke-width:1.97515;stroke-miterlimit:5.3;stroke-dasharray:none;stroke-opacity:1"
         d="m 2566.1765,3147.5047 v 0.02 c -2.7698,0 -5.9879,2.6299 -9.3241,6.647 -3.3361,4.0168 -6.7787,9.4479 -9.8912,15.1375 -3.1125,5.6894 -5.8922,11.6391 -7.8967,16.6886 -2.0046,5.0494 -3.2392,9.1737 -3.2404,11.3261 0,3.5432 0.6287,6.9248 2.2683,9.4398 1.6396,2.5149 4.3048,4.1448 8.267,4.147 0.9366,0 2.1069,-0.4837 3.4527,-1.2961 1.3456,-0.8122 2.8597,-1.9594 4.4363,-3.3254 3.0629,-2.6538 6.3498,-6.1233 9.0695,-9.5093 0.2911,1.3715 0.8163,2.656 1.6588,3.6264 0.9221,1.0618 2.2212,1.7428 3.9117,1.7436 2.396,0 4.4517,-1.9007 5.9178,-3.769 1.0301,-1.3124 1.6281,-2.3759 1.979,-3.0399 -0.012,0.7006 0.012,1.7358 0.2546,3.0052 0.1823,0.9516 0.4859,1.9086 0.9991,2.6463 0.5134,0.7379 1.261,1.2534 2.2684,1.2538 2.3052,0 4.5749,-1.1944 6.7124,-3.0591 2.1373,-1.8647 4.1502,-4.403 5.9447,-7.1368 3.5375,-5.389 6.2071,-11.4969 7.2641,-14.6939 0.8539,0.2734 1.8192,0.4207 2.8971,0.4397 -0.063,0.5982 -0.4423,1.4649 -1.0339,2.5114 -0.6473,1.1448 -1.5166,2.5007 -2.3879,3.9811 -1.7427,2.9609 -3.5009,6.433 -3.5028,9.8372 0,2.0113 0.4854,4.002 1.4081,5.5089 0.9228,1.5068 2.3027,2.5337 4.039,2.5345 3.5374,0 7.0525,-3.1715 9.4282,-6.8089 0.067,1.3162 0.2733,2.859 0.9915,4.1663 0.8239,1.5 2.3367,2.6487 4.9417,2.6503 0.889,0 1.8567,-0.4839 2.8817,-1.3001 1.0249,-0.8163 2.1095,-1.9719 3.2173,-3.3524 2.1661,-2.6986 4.4077,-6.2626 6.3884,-9.8255 0.8594,1.1367 1.9181,1.9103 2.9897,2.4187 -0.3832,1.559 -0.6087,2.9529 -0.6095,4.0275 0,2.1788 0.4262,4.1822 1.5431,5.6553 1.1168,1.4729 2.9272,2.3864 5.5898,2.3879 1.7666,0 3.6539,-0.9431 5.5242,-2.3917 1.7747,-1.3743 3.5317,-3.2123 5.1385,-5.1577 0.2955,1.8592 0.9491,3.6766 2.087,5.069 1.2212,1.4942 2.9931,2.4907 5.3661,2.4921 2.8963,0 5.8904,-1.6512 8.6104,-4.151 2.6997,-2.4814 5.1281,-5.8073 6.9091,-9.2277 0.5565,-0.1165 1.0837,-0.296 1.5894,-0.5129 -0.7209,2.4373 -1.1297,4.5574 -1.1303,5.8599 0,5.037 2.9485,8.0412 6.2996,8.0431 3.0275,0 5.6819,-1.9974 7.5804,-3.9771 1.2444,-1.2975 2.0022,-2.3692 2.4921,-3.1095 -0.1477,0.7642 -0.2949,1.7915 -0.2122,2.9898 0.069,1.0036 0.3139,2.0237 0.9143,2.8045 0.6005,0.7808 1.562,1.2993 2.982,1.3 2.7234,0 5.1872,-1.8757 7.1406,-4.2048 1.1732,2.4464 3.2761,4.2112 5.8213,4.2126 2.9869,0 6.0271,-1.3242 8.5371,-3.1632 1.2281,1.7383 3.0295,2.9289 5.1115,3.1711 3.3146,0.3853 6.3735,-1.2195 8.5988,-3.2869 1.1127,-1.0338 2.0181,-2.1863 2.6502,-3.2752 0.6323,-1.0889 0.9949,-2.1106 0.9953,-2.9202 0,-0.5169 -0.1684,-1.0854 -0.4976,-1.5432 -0.3293,-0.458 -0.8367,-0.8059 -1.4737,-0.8063 -0.7292,0 -1.2794,0.2851 -1.7359,0.6828 -0.4565,0.3978 -0.8299,0.9023 -1.2499,1.3773 -0.8401,0.9505 -1.8241,1.7994 -4.0275,1.543 -0.6431,-0.075 -1.0915,-0.2074 -1.3926,-0.3741 -0.3013,-0.1659 -0.4598,-0.3612 -0.5594,-0.5979 -0.1993,-0.4736 -0.1157,-1.1584 -0.1157,-1.9597 0,-0.079 0.043,-0.3137 0.1311,-0.6326 0.089,-0.3188 0.219,-0.7364 0.3858,-1.2308 0.3336,-0.9881 0.8111,-2.2955 1.3849,-3.8152 1.1476,-3.0391 2.6778,-6.9246 4.2088,-10.817 1.5291,-3.8875 3.0584,-7.2942 4.2087,-10.115 1.1504,-2.8207 1.928,-5.0478 1.9289,-6.6353 0,-0.9885 -0.4294,-1.7985 -1.0802,-2.3646 -0.6076,-0.5286 -1.403,-0.839 -2.2336,-0.9374 v -0.024 l -0.1773,-0.02 c -0.1191,-0.02 -0.239,-0.02 -0.3588,-0.02 -1.0228,0 -1.7864,0.2566 -2.3378,0.679 -0.5515,0.4225 -0.8858,1.0034 -1.084,1.6203 -0.3963,1.2332 -0.2696,2.6376 -0.27,3.4023 0,0.8981 -0.1893,1.5092 -0.5324,2.2916 -0.3431,0.7824 -0.8431,1.7243 -1.4428,3.225 -1.1916,2.9829 -2.781,6.8161 -4.3708,10.682 -1.5898,3.8662 -3.181,7.7667 -4.3746,10.8827 -0.5116,1.335 -0.9381,2.5068 -1.2731,3.491 -0.5214,0.8199 -1.0551,1.6358 -1.7282,2.2377 -0.6773,0.6056 -1.4868,1.0035 -2.6117,1.003 -0.6442,0 -1.0856,-0.097 -1.381,-0.2469 -0.2953,-0.1502 -0.4559,-0.3498 -0.5555,-0.6058 -0.1996,-0.5118 -0.1081,-1.2771 -0.1081,-2.0793 0,-0.079 0.039,-0.3136 0.1272,-0.6326 0.089,-0.3188 0.219,-0.7326 0.3858,-1.2268 0.3335,-0.9883 0.815,-2.2959 1.3888,-3.8153 1.1477,-3.0394 2.6777,-6.9285 4.2087,-10.8209 1.5291,-3.8875 3.0585,-7.2902 4.2088,-10.1109 1.1503,-2.8208 1.928,-5.0481 1.9288,-6.6354 0,-1.0545 -0.4908,-1.9066 -1.2151,-2.4766 -0.7243,-0.57 -1.6762,-0.8712 -2.6348,-0.8718 -1.0231,0 -1.7863,0.2566 -2.3378,0.679 -0.5515,0.4225 -0.8859,1.0036 -1.084,1.6203 -0.3965,1.2332 -0.2736,2.6376 -0.2739,3.4023 0,0.8979 -0.1853,1.5092 -0.5285,2.2916 -0.3431,0.7824 -0.847,1.7241 -1.4467,3.225 -1.1913,2.9827 -2.7772,6.816 -4.3669,10.682 -1.5899,3.8662 -3.1807,7.7669 -4.3746,10.8827 -0.9058,2.3648 -1.5691,4.2475 -1.8479,5.3698 -0.9229,0.8112 -2.1928,1.3624 -3.2057,1.3619 -0.1877,0 -0.3166,-0.048 -0.4205,-0.1304 -0.1037,-0.085 -0.1877,-0.2145 -0.2469,-0.4051 -0.1187,-0.3812 -0.1239,-0.986 -0.023,-1.736 0.2016,-1.4999 0.8069,-3.5892 1.5238,-5.8407 0.7169,-2.2516 1.5436,-4.669 2.195,-6.8589 0.6514,-2.19 1.1295,-4.1432 1.1303,-5.5049 0,-1.14 -1.0459,-2.3676 -2.7081,-2.3686 -0.8659,0 -1.6632,0.1126 -2.3416,0.621 -0.5744,0.4302 -1.0378,1.1509 -1.4081,2.2491 -0.1292,-0.3289 -0.3464,-0.7375 -0.7484,-1.1458 -0.8656,-0.8793 -2.5262,-1.7304 -5.6631,-1.7322 -2.4506,0 -4.686,1.5416 -6.6198,3.8154 -2.6809,3.1565 -4.0019,8.8704 -6.4347,9.6674 1.0657,-3.0481 1.5012,-5.9391 0.9336,-8.1282 -0.3022,-1.1651 -0.8869,-2.1341 -1.8016,-2.8007 -0.9145,-0.6668 -2.1494,-1.0267 -3.7226,-1.003 -4.3376,0.065 -7.1042,3.3447 -7.6846,6.9324 -0.569,3.5171 0.9751,7.3657 5.1192,8.7915 -2.1328,3.1146 -4.8726,5.5605 -7.565,5.5591 -0.5292,0 -1.0116,-0.4071 -1.3772,-1.1689 -0.3656,-0.762 -0.5909,-1.8562 -0.5902,-3.1055 0,-1.7806 0.9283,-4.8988 2.2413,-8.5255 1.3128,-3.6268 3.0057,-7.7776 4.5135,-11.7004 0.7525,-1.9578 1.7427,-4.4184 2.5731,-6.6122 0.8304,-2.1936 1.5006,-4.0947 1.6203,-5.038 0.1165,-0.9196 -0.032,-1.8422 -0.4282,-2.5501 -0.3963,-0.7079 -1.0644,-1.2029 -1.925,-1.2035 -2.8081,0 -4.2031,0.9507 -4.8415,2.2067 -0.6382,1.2556 -0.5397,2.7618 -0.54,3.873 0,1.243 -1.0973,3.0688 -1.8942,5.2697 0,0 -5.7113,13.3419 -8.3288,21.4912 -0.7309,1.7628 -2.3786,3.5414 -4.2319,4.8646 -1.8539,1.3239 -3.9163,2.188 -5.4162,2.1872 -0.7575,0 -1.2176,-0.3267 -1.5161,-0.9297 -0.283,-0.5718 -0.3804,-1.4175 -0.3356,-2.4033 3.0073,-0.4083 5.9842,-1.9457 8.2324,-4.1316 2.2909,-2.2276 3.8289,-5.1297 3.8307,-8.1898 0,-1.859 -0.589,-3.6471 -1.6357,-4.9803 -1.0467,-1.3332 -2.5592,-2.2096 -4.3669,-2.2106 -2.121,0 -4.2424,1.8005 -6.1685,4.3902 -1.8819,2.5299 -3.5721,5.8403 -4.8568,9.0732 -0.8962,-0.6159 -1.53,-1.445 -1.9675,-2.3301 0.9494,-1.9722 1.7459,-3.7899 2.3031,-5.2695 0.5661,-1.5035 0.8945,-2.6441 0.8949,-3.3176 0,-1.0074 -0.539,-1.7579 -1.3347,-2.0909 -0.7957,-0.333 -1.8286,-0.2649 -2.847,0.2623 -2.0367,1.0545 -4.0129,3.9495 -4.0159,9.324 0,0.7941 0.054,1.5203 0.1543,2.195 0,0.1699 -0.089,0.5007 -0.2585,0.9066 -0.17,0.4077 -0.4173,0.8993 -0.7214,1.4429 -0.6081,1.0873 -1.4415,2.3759 -2.3262,3.607 -0.8848,1.2313 -1.8218,2.4063 -2.6387,3.2675 -0.4084,0.4305 -0.787,0.7835 -1.1071,1.0221 -0.3202,0.2388 -0.5884,0.3512 -0.7175,0.3512 -0.6227,0 -0.9726,-0.2048 -1.1921,-0.5787 -0.2194,-0.3739 -0.2945,-0.955 -0.2276,-1.6898 0.1337,-1.4693 0.8126,-3.5203 1.6627,-5.7016 0.85,-2.1814 1.8687,-4.497 2.6772,-6.531 0.8086,-2.0341 1.4151,-3.7702 1.4158,-4.88 0,-0.6163 -0.02,-1.4905 -0.5979,-2.2144 -0.5779,-0.7237 -1.6896,-1.2526 -3.7574,-1.2538 -0.9856,0 -1.8452,0.7429 -2.6156,1.8904 -0.7703,1.1478 -1.4667,2.7277 -2.1063,4.5057 -1.2791,3.5559 -2.3341,7.9109 -3.225,11.1564 -0.7076,2.578 -3.3963,5.291 -6.9362,5.2891 -0.6006,0 -0.9132,-0.1679 -1.0801,-0.4553 -0.1669,-0.2862 -0.1892,-0.7466 -0.066,-1.3425 0.2465,-1.1916 1.0582,-2.8732 2.0369,-4.6639 0.9787,-1.7909 2.1211,-3.6957 3.0205,-5.3777 0.8996,-1.6821 1.5698,-3.1174 1.5701,-4.0892 0,-1.398 -0.3848,-2.4067 -1.0068,-3.117 -0.6222,-0.7104 -1.4663,-1.1187 -2.3648,-1.3618 -1.6814,-0.4547 -3.5546,-0.3743 -4.6215,-0.5594 0.1317,-0.2698 0.4404,-0.9127 0.8101,-1.9019 0.4606,-1.2323 0.9253,-2.7843 0.9258,-4.116 0,-1.1116 -0.4442,-1.953 -1.0917,-2.4999 -0.6476,-0.5467 -1.4901,-0.8059 -2.2953,-0.8063 -1.4067,0 -2.7138,1.1051 -3.6803,2.5539 -0.9663,1.4488 -1.5999,3.2582 -1.6009,4.7797 0,2.2137 1.221,3.9127 2.5075,5.0613 -1.0311,2.9096 -3.554,7.6337 -6.3074,11.6387 -1.3916,2.0243 -2.8389,3.8626 -4.174,5.1887 -1.3353,1.3261 -2.5677,2.1182 -3.4334,2.1178 -0.1578,-2e-4 -0.2389,-0.044 -0.3086,-0.1264 -0.07,-0.083 -0.1262,-0.2244 -0.1465,-0.436 -0.04,-0.423 0.062,-1.0871 0.2816,-1.8981 0.4391,-1.6224 1.3304,-3.8456 2.3223,-6.18 0.9921,-2.3344 2.0852,-4.7826 2.9319,-6.8705 0.8467,-2.088 1.4543,-3.789 1.4543,-4.7566 0,-0.8793 -0.3008,-1.5515 -0.7522,-2.0368 -0.4513,-0.4853 -1.042,-0.7871 -1.6241,-0.9798 -1.1594,-0.3838 -2.3012,-0.3362 -2.3108,-0.3358 -0.2144,0 -0.392,0.1323 -0.5671,0.3125 -0.1756,0.1817 -0.3533,0.4335 -0.5478,0.7483 -0.3889,0.6297 -0.8326,1.5134 -1.327,2.5733 -0.9889,2.1199 -2.1817,4.9357 -3.5221,7.75 -1.3403,2.8144 -2.8293,5.628 -4.3901,7.7233 -1.5609,2.0952 -3.1878,3.4456 -4.7642,3.4448 -0.081,0 -0.088,-0.02 -0.1195,-0.069 -0.031,-0.063 -0.052,-0.2062 -0.039,-0.4049 0.026,-0.3978 0.1818,-1.0107 0.436,-1.7593 0.5081,-1.4972 1.398,-3.5448 2.357,-5.6862 0.9589,-2.1413 1.9868,-4.3807 2.7776,-6.2802 0.3952,-0.9501 0.7337,-1.814 0.9721,-2.5424 0.2385,-0.7283 0.3817,-1.3147 0.3819,-1.7437 0,-1.5524 -0.2196,-2.7934 -0.9143,-3.6609 -0.6948,-0.8673 -1.8486,-1.3145 -3.5915,-1.3155 -0.1333,0 -0.2018,0.063 -0.2855,0.1304 -0.084,0.067 -0.1748,0.156 -0.2777,0.27 -0.2057,0.2287 -0.4598,0.5552 -0.7638,0.9684 -0.6082,0.8264 -1.4095,2.0016 -2.3532,3.4101 -1.8877,2.817 -4.3468,6.5684 -6.9593,10.3194 -2.6125,3.751 -5.3787,7.5035 -7.8736,10.3078 -1.2475,1.4022 -2.4275,2.5667 -3.4797,3.3756 -1.052,0.809 -1.9757,1.2502 -2.6772,1.2498 -0.4328,0 -0.7238,-0.1343 -0.9413,-0.382 -0.2175,-0.2484 -0.3604,-0.6322 -0.4166,-1.1495 -0.113,-1.0344 0.126,-2.5689 0.6326,-4.4133 1.0134,-3.6885 3.0795,-8.6327 5.3854,-13.5751 4.2245,-9.0551 8.7961,-17.28 9.6095,-18.7371 -0.1256,0.7757 -0.2636,1.797 -0.3124,2.8934 -0.045,1.0188 -0.01,2.0414 0.2237,2.8354 0.1156,0.3972 0.278,0.7389 0.5208,0.9915 0.243,0.2526 0.5749,0.4049 0.9606,0.4051 2.5159,0 4.1375,-1.255 5.0806,-3.2483 0.9431,-1.9934 1.2482,-4.7133 1.2499,-7.727 0,-3.0117 -0.2551,-5.6912 -0.8834,-7.642 -0.3142,-0.9756 -0.7201,-1.7725 -1.2499,-2.3341 -0.5298,-0.5615 -1.1931,-0.8829 -1.9636,-0.8833 z m 103.9652,28.7438 0.1774,0.02 c 0.4306,0.059 0.6885,0.3166 0.8487,0.7986 0.1603,0.4825 0.1878,1.1843 0.081,2.0213 -0.2083,1.6301 -0.9214,3.7747 -1.9674,5.9178 -2.3012,-1.0101 -3.4867,-3.1725 -3.4179,-5.0884 0.034,-0.9819 0.3926,-1.8938 1.0917,-2.5614 0.6987,-0.6674 1.7454,-1.1078 3.1865,-1.1073 z m -24.4386,0.9297 c 0.1598,0.026 0.2798,0.1204 0.3819,0.3241 0.1049,0.2085 0.1703,0.5226 0.1813,0.9026 0.022,0.7601 -0.171,1.78 -0.594,2.7891 -0.8456,2.0174 -2.5667,3.9774 -5.2041,3.9774 0.7009,-2.0074 1.6241,-3.9849 2.5693,-5.4702 0.4942,-0.7768 0.993,-1.4195 1.4582,-1.8596 0.4602,-0.4353 0.8828,-0.6589 1.2074,-0.6634 z m 43.9084,0.045 c 1.0087,0.1126 1.649,0.7513 1.9366,1.7128 0.2874,0.9615 0.1926,2.2424 -0.3472,3.5454 v 0.02 0.02 c -0.7423,2.2396 -2.0864,5.1368 -3.5375,7.4607 -0.7255,1.162 -1.4793,2.181 -2.1912,2.9011 -0.712,0.72 -1.379,1.1227 -1.8903,1.1225 -0.6068,0 -0.9813,-0.2244 -1.2344,-0.6441 -0.2532,-0.4199 -0.3649,-1.0563 -0.3434,-1.8402 0.043,-1.5677 0.6169,-3.7038 1.4544,-5.8368 0.8374,-2.1326 1.9348,-4.2703 3.0013,-5.8636 0.5333,-0.7968 1.06,-1.4557 1.5353,-1.9096 0.4253,-0.5631 1.0275,-0.7353 1.6164,-0.6867 z" />
    </g>
  </g>
</svg>
