<?xml version="1.0" encoding="UTF-8" standalone="no"?>
<svg
   width="1920"
   height="1080"
   viewBox="0 0 1920 1080"
   version="1.1"
   id="svg8"
   sodipodi:docname="underknown-logo-white.svg"
   inkscape:version="1.1.1 (3bf5ae0d25, 2021-09-20)"
   xmlns:inkscape="http://www.inkscape.org/namespaces/inkscape"
   xmlns:sodipodi="http://sodipodi.sourceforge.net/DTD/sodipodi-0.dtd"
   xmlns="http://www.w3.org/2000/svg"
   xmlns:svg="http://www.w3.org/2000/svg">
  <sodipodi:namedview
     id="namedview10"
     pagecolor="#505050"
     bordercolor="#ffffff"
     borderopacity="1"
     inkscape:pageshadow="0"
     inkscape:pageopacity="0"
     inkscape:pagecheckerboard="1"
     showgrid="false"
     inkscape:snap-page="true"
     inkscape:snap-nodes="false"
     inkscape:snap-bbox="true"
     inkscape:snap-bbox-edge-midpoints="true"
     inkscape:zoom="0.36156494"
     inkscape:cx="1016.4149"
     inkscape:cy="387.20568"
     inkscape:current-layer="svg8" />
  <defs
     id="defs4">
    <style
       id="style2">.a{fill:#fff;}</style>
    <style
       id="style2-8">.cls-1{fill:#1c64f2;}</style>
  </defs>
  <style
     type="text/css"
     id="style244">
	.st0{fill:#FFFFFF;}
</style>
  <style
     type="text/css"
     id="style2-3">
	.st0{fill:#F97C85;}
	.st1{fill-rule:evenodd;clip-rule:evenodd;fill:#F97C85;}
</style>
  <path
     style="fill:#ffffff;stroke-width:1"
     d="M 0.14296793,690.34289 C 0.68790959,688.90006 15.39489,638.97829 32.82515,579.40561 50.255421,519.83293 66.707563,464.06165 69.385475,455.46943 l 4.868926,-15.62221 0.223484,51.03255 c 0.122884,28.0679 1.1717,55.14576 2.330677,60.17304 8.23941,35.74005 38.441238,63.71721 74.141958,68.68064 11.09787,1.54293 11.71419,1.88881 6.96742,3.91011 -2.86407,1.21959 -32.39005,14.14277 -65.613268,28.71816 -90.5229423,39.7134 -93.23867564,40.83259 -92.16170407,37.98117 z M 490.60326,576.09041 c -42.36432,-9.97561 -63.71359,-62.52781 -42.88295,-105.5582 10.43145,-21.5485 30.05577,-33.9629 56.0679,-35.46871 17.05109,-0.98707 28.07903,1.43842 37.91528,8.33912 l 5.72814,4.01864 v -31.38625 -31.38626 h 25.05088 25.0509 l -0.57611,95.29547 -0.57608,95.29547 -23.43332,0.58896 -23.43331,0.58895 v -6.45892 -6.45895 l -6.39973,4.55702 c -12.97941,9.24216 -33.83161,12.4323 -52.5116,8.03366 z m 43.93522,-41.52184 c 8.57439,-5.22768 12.89315,-15.20116 12.89315,-29.77462 0,-35.91618 -46.10675,-44.39123 -56.30581,-10.34978 -4.94744,16.51305 2.60048,37.09985 15.51819,42.32562 7.83931,3.17133 20.75397,2.1522 27.89447,-2.20122 z m 139.50766,40.04038 c -33.96718,-9.18415 -54.09377,-33.94797 -54.50689,-67.0655 -0.28785,-23.07418 4.68307,-35.49924 20.55694,-51.38304 11.13057,-11.13753 14.84962,-13.45859 27.9317,-17.43216 21.008,-6.38096 46.63337,-5.26162 63.01368,2.75251 24.16679,11.82371 37.23279,32.09358 38.86525,60.29333 l 0.93689,16.18416 h -51.30016 c -31.57854,0 -51.30018,0.77291 -51.30018,2.01048 0,1.10578 2.8891,5.30101 6.42025,9.32273 11.15534,12.70525 31.35872,15.18136 49.62002,6.08136 l 11.03307,-5.49802 12.80921,12.92145 12.80921,12.92145 -7.24584,6.14434 c -17.16216,14.55314 -52.21416,20.16324 -79.64315,12.74691 z m 50.43718,-84.00406 c 0,-1.29682 -1.89267,-5.42023 -4.20592,-9.16318 -7.88263,-12.75434 -27.68208,-16.52514 -40.98874,-7.80629 -4.88533,3.201 -11.04529,12.76048 -11.04529,17.1409 0,1.41858 9.87504,2.18641 28.11997,2.18641 19.54351,0 28.11998,-0.71912 28.11998,-2.35784 z m 594.30378,85.58044 c -22.4791,-4.44344 -44.1918,-21.18232 -53.4388,-41.19746 -6.7266,-14.56005 -6.4805,-45.57874 0.4653,-58.62492 10.9728,-20.61044 22.2525,-30.22927 44.105,-37.61124 11.0756,-3.74146 16.8678,-4.38605 33.2042,-3.69509 25.7611,1.0896 41.4476,7.74861 56.1509,23.83644 12.9082,14.12372 17.7946,27.66333 17.5937,48.74975 -0.2547,26.72543 -12.7609,47.68211 -35.6573,59.75078 -19.1786,10.10906 -40.5391,13.11749 -62.423,8.79174 z m 38.9886,-45.31148 c 25.2745,-25.27446 0.1544,-70.42911 -30.7506,-55.27562 -11.4261,5.60246 -17.2298,15.48373 -17.2298,29.33475 0,21.73569 10.6958,33.83234 29.9272,33.84711 8.9674,0.005 11.0538,-0.90684 18.0532,-7.90624 z m 518.838,43.92861 c -14.0269,-6.91017 -19.4292,-27.41172 -10.9059,-41.38872 4.4339,-7.27115 15.6947,-13.3947 24.5069,-13.32678 23.3291,0.17976 37.6625,25.19422 25.16,43.90915 -8.8087,13.18597 -24.8515,17.6586 -38.761,10.80635 z M 156.87646,574.32803 c -16.69301,-4.04941 -30.26194,-16.96861 -34.18489,-32.54801 -1.30808,-5.19491 -2.26692,-29.31684 -2.26692,-57.03004 v -48.0272 h 44.78366 44.78365 v 47.53004 c 0,52.1112 -1.77564,63.47999 -11.76966,75.35723 -9.61071,11.42166 -27.97942,17.96043 -41.34584,14.71798 z m 111.43842,-67.82606 v -69.77919 h 23.95404 23.95405 v 6.26669 6.26669 L 328.2,442.46873 c 11.20055,-6.34741 13.26276,-6.78743 31.80939,-6.78743 24.87809,0 36.94657,5.21045 47.16326,20.36223 9.45017,14.01506 11.11541,25.33444 11.11541,75.5565 v 44.68114 h -24.88074 -24.88074 l -0.63554,-44.96783 -0.63553,-44.96785 -5.84428,-5.02322 c -7.86356,-6.7588 -23.35723,-7.0075 -31.62051,-0.50758 -10.13067,7.96878 -11.48479,14.67346 -11.48479,56.8648 v 38.60168 H 293.3104 268.31488 Z m 524.90615,0 v -69.77919 h 23.95405 23.95405 v 7.65343 7.65348 l 4.68666,-4.28536 c 7.61885,-6.96649 17.95279,-11.29436 29.91657,-12.52914 l 11.22191,-1.15821 v 21.70884 21.70881 l -11.28714,0.1631 c -13.88471,0.2008 -23.81996,5.51063 -28.80663,15.3958 -3.0701,6.0859 -3.64246,13.1883 -3.64518,45.23354 l -0.003,38.0141 H 818.2165 793.22096 Z m 116.64581,-26.03701 v -95.81621 h 23.95405 23.95405 v 48.94959 c 0,26.92228 0.58152,48.94959 1.29226,48.94959 0.71076,0 12.31454,-10.31066 25.78623,-22.91258 l 24.49387,-22.91257 h 28.7955 28.7954 l -28.5446,28.80761 c -15.6996,15.84416 -28.5447,29.41828 -28.5447,30.16467 0,0.7464 13.5914,18.621 30.203,39.72135 16.6116,21.10033 30.203,38.92686 30.203,39.6145 0,0.68765 -12.9464,1.25026 -28.7695,1.25026 h -28.7694 l -19.17356,-23.95406 c -10.54544,-13.17472 -19.99807,-23.95404 -21.00585,-23.95404 -1.00778,0 -4.74142,3.31328 -8.297,7.36285 -6.07358,6.91743 -6.46465,8.36652 -6.46465,23.95404 v 16.59121 h -23.95405 -23.95405 z m 179.13466,26.10313 v -69.84531 h 22.9125 22.9127 v 6.24888 c 0,7.39531 0.6496,7.55314 8.3933,2.03912 15.5285,-11.05715 45.0331,-13.91016 62.4273,-6.03652 27.7101,12.54339 34.0437,31.75923 32.8991,99.81361 l -0.6132,36.45182 -24.4748,0.58685 -24.4748,0.58683 v -40.54825 c 0,-41.68844 -0.9428,-48.01112 -8.2486,-55.31699 -5.3968,-5.39678 -22.752,-5.86974 -30.444,-0.82966 -9.3883,6.15139 -10.2027,10.03433 -11.2985,53.86199 l -1.0415,41.65923 -24.4747,0.58685 -24.4748,0.58683 z m 380.9343,63.98493 c -3.3755,-8.68109 -47.6606,-132.54372 -47.6606,-133.30383 0,-0.36456 10.4366,-0.3978 23.1925,-0.0739 l 23.1925,0.58894 13.6278,40.14517 c 7.4952,22.07988 14.3504,39.42053 15.2338,38.53478 0.8834,-0.8857 7.1915,-17.54504 14.0181,-37.02073 6.8267,-19.47568 13.0683,-37.05066 13.8706,-39.05552 1.2552,-3.13723 4.4025,-3.64365 22.586,-3.63422 l 21.1274,0.0108 13.283,40.08606 c 7.3056,22.04735 13.8669,40.73609 14.5807,41.5306 0.7138,0.79451 7.7239,-17.24914 15.578,-40.09699 l 14.2802,-41.54097 h 21.5835 21.5835 l -10.146,28.6407 c -5.5804,15.75241 -16.6727,46.91871 -24.6498,69.25846 l -14.5037,40.61774 -23.9238,0.58417 -23.9237,0.58418 -10.8458,-31.82859 c -17.1812,-50.42051 -13.7516,-49.71693 -29.3791,-6.02717 l -13.4951,37.72889 h -23.4914 -23.4912 z m 218.9584,-63.98493 v -69.84531 h 22.9126 22.9127 v 6.24888 c 0,7.39531 0.6496,7.55314 8.3933,2.03912 21.7474,-15.48548 59.2868,-13.64434 77.7194,3.81182 14.7005,13.92161 18.419,32.51226 17.5785,87.8823 l -0.5847,38.53479 -24.4748,0.58685 -24.4748,0.58683 v -40.75073 c 0,-53.19055 -2.3792,-59.36361 -22.8791,-59.36361 -10.1482,0 -19.6994,4.47142 -23.4051,10.95712 -1.8099,3.16772 -2.9998,18.03656 -3.707,46.32431 l -1.0414,41.65923 -24.4748,0.58685 -24.4748,0.58683 z"
     id="path603"
     inkscape:export-filename="/home/siep/src/badgateway/assets/clients/png/underknown.png"
     inkscape:export-xdpi="96.002502"
     inkscape:export-ydpi="96.002502" />
</svg>
