<?xml version="1.0" encoding="UTF-8" standalone="no"?>
<!-- Created with Inkscape (http://www.inkscape.org/) -->

<svg
   width="371.47501mm"
   height="57.943748mm"
   viewBox="0 0 371.47501 57.943748"
   version="1.1"
   id="svg5"
   xmlns="http://www.w3.org/2000/svg"
   xmlns:svg="http://www.w3.org/2000/svg">
  <defs
     id="defs2" />
  <g
     id="layer1"
     transform="translate(102.70969,-29.684593)">
    <path
       style="fill:#ffffff;stroke-width:1"
       d="m 172.57004,82.815208 c -6.0742,-1.15998 -11.31623,-6.09059 -12.66684,-11.91429 -0.53038,-2.28694 -0.5349,-7.39661 -0.009,-9.62938 0.43862,-1.86055 1.38162,-3.99903 2.2957,-5.206 0.94853,-1.2525 3.73803,-3.98205 4.48725,-4.39085 0.37465,-0.20441 1.29125,-0.70045 2.0369,-1.10231 2.86332,-1.5432 8.63438,-2.0049 12.54828,-1.0039 2.27817,0.58266 3.35762,1.08294 4.68207,2.16997 0.50612,0.41537 1.05439,0.75521 1.21841,0.75521 0.46942,0 2.90398,2.70255 3.51697,3.90407 0.30504,0.59791 0.67538,1.16175 0.82296,1.25297 0.14761,0.0912 0.26837,0.51361 0.26837,0.93864 0,0.6547 -0.21225,0.89451 -1.38906,1.56941 -1.92429,1.10357 -2.67542,1.05854 -3.47517,-0.20835 -0.35066,-0.55546 -1.36147,-1.73384 -2.24624,-2.61863 -2.72798,-2.72797 -6.73068,-3.98417 -10.39677,-3.26291 -6.68367,1.31493 -11.28565,8.26999 -9.72852,14.7029 1.13101,4.67243 5.33233,8.51663 10.27276,9.39953 1.60724,0.28723 2.10315,0.27294 3.6335,-0.10471 0.9747,-0.24053 2.41464,-0.73146 3.19987,-1.09094 1.59708,-0.73117 4.4966,-3.36532 5.2555,-4.77452 0.63921,-1.18697 1.56932,-1.21912 3.48507,-0.12046 1.18668,0.68057 1.38906,0.91149 1.38906,1.58502 0,0.43362 -0.097,0.7884 -0.21558,0.7884 -0.11856,0 -0.4227,0.43437 -0.67588,0.96526 -0.70499,1.47835 -2.27333,3.26048 -3.73875,4.24836 -0.7276,0.49049 -1.70696,1.17114 -2.17633,1.51253 -2.1095,1.53431 -8.50477,2.37788 -12.39499,1.63498 z m -71.61071,-0.30589 c -1.577492,-0.3824 -4.173181,-1.57021 -4.173181,-1.90969 0,-0.10755 -0.353026,-0.35181 -0.784503,-0.54279 -1.061479,-0.46986 -4.204028,-3.8774 -5.108581,-5.53936 -2.393648,-4.39792 -2.396963,-12.39154 -0.007,-16.78276 0.399357,-0.73375 0.87821,-1.39246 1.064117,-1.4638 0.185902,-0.0713 0.338008,-0.26952 0.338008,-0.44041 0,-0.5119 2.920288,-3.19348 4.7625,-4.37322 2.68787,-1.72128 3.94716,-2.00633 8.86354,-2.00633 5.09978,0 6.18762,0.27812 9.41473,2.40704 2.81851,1.85936 3.49697,2.50911 4.66972,4.47212 0.52163,0.87313 1.09169,1.7661 1.26679,1.98438 0.50643,0.63131 1.18522,2.91446 1.18522,3.98657 0,1.27243 -0.62984,1.96629 -2.11666,2.33178 -2.94498,0.72393 -6.22726,1.67129 -6.47529,1.86895 -0.14938,0.11903 -1.70034,0.60158 -3.44659,1.07232 -1.74625,0.47074 -4.18188,1.13975 -5.41252,1.48668 -2.61647,0.73761 -4.54867,0.81825 -5.151916,0.21501 -0.272468,-0.27247 -0.415774,-0.89494 -0.415774,-1.80597 0,-2.28459 -0.651603,-2.00819 13.89063,-5.89227 1.45521,-0.38867 2.79961,-0.84458 2.98755,-1.01313 0.27231,-0.2442 0.0363,-0.65167 -1.1618,-2.0058 -1.86147,-2.10391 -3.43576,-3.18572 -5.66221,-3.89093 -2.48612,-0.78745 -3.33746,-0.85033 -5.54061,-0.40925 -2.5715,0.51482 -4.262076,1.39751 -6.180353,3.22688 -1.833332,1.74837 -2.688757,3.11188 -3.381576,5.39009 -2.018043,6.63595 2.424046,13.68326 9.563149,15.1718 2.07897,0.43348 3.76027,0.25768 6.25443,-0.65396 2.27968,-0.83326 4.62812,-2.8474 6.28063,-5.38659 0.59727,-0.91774 1.34814,-0.93285 3.06729,-0.0617 1.21138,0.61386 1.31412,0.74085 1.31412,1.62439 0,0.60469 -0.30276,1.45755 -0.82027,2.31064 -0.88775,1.4634 -2.82411,3.59853 -3.26971,3.60537 -0.1516,0.002 -0.69236,0.37166 -1.20168,0.82075 -1.22308,1.07845 -1.86453,1.38864 -4.25022,2.05534 -2.39785,0.6701 -7.88463,0.74838 -10.36202,0.14784 z m 33.60093,-0.21911 c -2.04632,-0.62537 -3.02697,-1.13182 -4.03294,-2.08274 -0.29478,-0.27865 -0.84257,-0.66741 -1.2173,-0.86392 -1.68975,-0.8861 -4.87589,-5.80091 -5.57103,-8.59364 -0.5405,-2.17146 -0.46343,-7.67293 0.1353,-9.65729 0.55867,-1.85164 2.95034,-6.02937 4.0469,-7.06907 1.35953,-1.28904 5.14657,-3.61788 6.6684,-4.10073 1.18107,-0.37474 2.38579,-0.47083 5.85281,-0.46683 3.82601,0.004 4.55524,0.0761 5.89962,0.57973 1.61084,0.60348 4.81437,2.58464 5.48243,3.39049 0.34818,0.41999 0.52854,-0.616886 0.43562,-8.87096 -0.0713,-6.337126 0,-7.65452 0,-8.289679 0,-0.970691 0.76988,-2.256987 2.22978,-2.28859 1.26836,-0.02746 2.39333,0.978074 2.39333,2.18969 0,0.339899 0.22797,15.940709 0.22797,15.940709 0,16.04183 -0.0286,17.08236 -0.52339,19.0168 -0.67918,2.65559 -1.60087,4.31122 -3.60228,6.4708 -1.92002,2.07176 -3.96697,3.53728 -6.25408,4.47764 -1.5047,0.61866 -2.05205,0.68949 -5.89213,0.7624 -3.83181,0.0728 -4.42736,0.0211 -6.27901,-0.54481 z m 7.75374,-4.26836 c 2.31167,-0.48628 4.65731,-1.69351 6.1168,-3.14816 4.93894,-4.92254 5.18342,-11.76378 0.60244,-16.8581 -2.5313,-2.81495 -6.97664,-4.54935 -10.10591,-3.94293 -2.00989,0.3895 -4.26753,1.25706 -5.34082,2.05237 -1.74031,1.28956 -3.93344,3.98784 -4.53837,5.5837 -1.02479,2.70348 -1.19777,4.45655 -0.6594,6.68272 0.59538,2.46188 1.11521,3.48797 2.71329,5.3558 2.10472,2.45997 4.34145,3.76462 7.52881,4.39143 1.63929,0.32237 1.58745,0.32402 3.68316,-0.11683 z m 62.09743,4.48747 c -1.70884,-0.41423 -4.1732,-1.58009 -4.1732,-1.97428 0,-0.14307 -0.17182,-0.26013 -0.38179,-0.26013 -0.91808,0 -4.36883,-3.73114 -5.70907,-6.17297 -2.50817,-4.56977 -1.90056,-14.82667 1.03563,-17.4821 0.30652,-0.27721 0.55732,-0.64974 0.55732,-0.82784 0,-0.43119 3.61468,-3.8275 4.0736,-3.8275 0.19773,0 0.51496,-0.1873 0.70496,-0.41622 1.24071,-1.49497 4.93374,-2.31688 9.72402,-2.16415 4.21978,0.13454 5.46423,0.46453 8.11929,2.15293 2.75463,1.75174 3.74463,2.69645 5.28871,5.04686 2.19784,3.34559 2.9791,6.50088 2.68861,10.8587 -0.22947,3.44244 -0.88651,5.48162 -2.60895,8.09709 -1.32836,2.01713 -3.3302,4.20551 -3.84778,4.20636 -0.10872,1.8e-4 -0.55486,0.30904 -0.99142,0.68637 -1.11022,0.95957 -1.89516,1.33007 -4.1297,1.94929 -2.34495,0.64983 -7.91276,0.71846 -10.35023,0.12759 z m 8.69997,-4.91464 c 1.7172,-0.52772 4.20304,-2.20233 5.46365,-3.68063 1.23566,-1.44906 2.07899,-3.0971 2.59966,-5.08027 0.60021,-2.28619 0.61392,-3.06492 0.0899,-5.10588 -0.61048,-2.37736 -1.53406,-4.06022 -3.14762,-5.73527 -2.26351,-2.34976 -3.91189,-3.22389 -7.38463,-3.91603 -1.5934,-0.31757 -4.68622,0.26324 -6.62011,1.24322 -1.63287,0.82744 -3.85191,2.89853 -4.96636,4.63526 -1.00634,1.56823 -1.81803,4.32054 -1.81803,6.16462 0,1.69324 0.76919,4.48723 1.64835,5.98741 0.94771,1.61713 3.0996,3.6983 4.75845,4.60209 0.76912,0.41903 2.23184,0.97077 3.25049,1.22609 2.08711,0.52312 3.58709,0.43973 6.12629,-0.34061 z m -260.437434,4.55082 c -1.777502,-0.48104 -3.487496,-1.19639 -3.789905,-1.58546 -0.07276,-0.0936 -0.727604,-0.54695 -1.455208,-1.00741 -0.727604,-0.46047 -1.778169,-1.304 -2.334588,-1.87451 -1.078103,-1.10541 -3.088974,-4.19434 -3.089222,-4.74539 -8.2e-5,-0.18191 -0.106167,-0.33073 -0.235747,-0.33073 -0.129579,0 -0.486767,-0.93084 -0.79375,-2.06854 -0.941493,-3.48922 -0.58488,-10.77863 0.588214,-12.02351 0.169865,-0.18026 0.713777,-1.1239 1.208696,-2.09697 0.887005,-1.74397 2.188932,-3.22289 4.524105,-5.13914 2.421205,-1.98684 5.985206,-3.01552 10.427219,-3.0096 5.983629,0.008 9.192133,1.46925 13.81052,6.28984 0.948063,0.98957 2.435916,4.28303 2.872018,6.3574 0.223801,1.06454 0.406911,3.12463 0.406911,4.57798 0,5.07475 -1.289397,8.60012 -4.31028,11.78485 -2.119371,2.23432 -4.42273,3.79471 -6.802221,4.60811 -2.499632,0.85446 -8.327689,0.99351 -11.026762,0.26308 z m 7.467093,-6.20118 c 1.708443,-0.45497 2.308711,-0.78182 4.082058,-2.22267 1.891961,-1.53723 2.831888,-2.84992 3.60105,-5.02918 0.768813,-2.17826 0.802566,-3.97204 0.116533,-6.19315 -1.488733,-4.81996 -6.367282,-8.24942 -11.12184,-7.81829 -3.391696,0.30755 -6.363049,2.33472 -8.395279,5.72759 -2.200649,3.67404 -2.241656,6.29444 -0.154242,9.85607 2.725163,4.64978 7.378782,6.87615 11.87172,5.67963 z m 29.034206,6.31218 c -1.508038,-0.34351 -3.723368,-1.27446 -4.043286,-1.6991 -0.07276,-0.0966 -0.669742,-0.48586 -1.326626,-0.86507 -1.11006,-0.64081 -3.079896,-2.59459 -4.391504,-4.35571 -1.80272,-2.42054 -2.748537,-5.80911 -2.748537,-9.84716 0,-5.49722 1.318586,-8.77378 5.019575,-12.47316 1.604658,-1.60396 2.759099,-2.50026 3.996505,-3.10284 5.2181996,-2.54111 13.96681971,-2.11108 17.8873283,0.87924 0.4633939,0.35345 0.9035733,0.64263 0.9781779,0.64263 0.074602,0 0.1656109,-3.622067 0.2160905,-8.0489 0,0 0.080449,-4.632051 0.080449,-7.055019 0.064066,-1.838118 1.3242336,-2.358581 3.1008559,-2.358581 1.7766223,0 3.1168524,0.813875 3.1168524,2.292741 v 15.637069 c 0,15.91564 -0.02334,16.72 -0.542327,18.70149 -0.5688064,2.17164 -1.4254532,4.11453 -1.8141526,4.11453 -0.125984,0 -0.4164912,0.39498 -0.6455727,0.87774 -0.5071428,1.06872 -2.9157058,3.5213 -4.007464,4.08069 -0.4376314,0.22423 -1.1285643,0.6855 -1.5354089,1.02503 -0.4068418,0.33954 -1.5379356,0.87621 -2.51354169,1.19261 -2.28033001,0.73953 -8.28785881,0.94025 -10.82741411,0.36177 z m 7.6419367,-6.47134 c 1.824109,-0.56341 2.74872459,-1.20222 4.9535743,-3.42241 3.0395705,-3.06071 3.7616607,-7.59168 1.8294694,-11.47954 -0.2742062,-0.55174 -0.701974,-1.21798 -0.9505976,-1.48052 -0.2486237,-0.26254 -0.9744578,-1.03745 -1.6129636,-1.72202 -2.7144001,-2.91024 -6.9666751,-3.78589 -11.0099134,-2.2672 -2.1871518,0.82151 -5.3630118,4.0087 -6.2317868,6.25401 -0.852932,2.20437 -0.862148,5.21235 -0.0227,7.41208 1.008816,2.64357 4.189314,5.68971 6.9159541,6.62379 2.1358676,0.73169 3.9466627,0.75586 6.1289726,0.0818 z m 29.5897783,6.7023 c -4.299603,-0.80965 -8.814155,-3.95677 -11.081846,-7.72521 -1.626904,-2.70359 -2.260854,-5.31391 -2.259597,-9.304 0.0019,-5.81518 1.389068,-9.26222 5.122641,-12.72887 2.208273,-2.0504 3.695999,-2.94588 6.419545,-3.86401 1.107353,-0.37329 2.265143,-0.47275 5.503424,-0.47275 4.347681,0 5.77365,0.27008 8.466667,1.60356 2.300507,1.13912 5.453041,4.22938 6.614332,6.48368 0.482327,0.93629 1.061813,2.05953 1.287748,2.4961 0.225933,0.43656 0.459193,1.53676 0.518351,2.44489 0.101155,1.5528 0.06088,1.69462 -0.676217,2.38125 -0.570352,0.53129 -1.569363,0.93913 -3.668686,1.4977 -1.586696,0.42217 -3.242091,0.92147 -3.678653,1.10955 -0.739963,0.3188 -2.579256,0.85509 -8.874242,2.58753 -3.363764,0.92574 -5.587616,0.94127 -6.483617,0.0453 -0.556094,-0.55609 -0.649433,-0.89621 -0.649433,-2.36649 0,-2.3881 0.452435,-2.8404 3.704166,-3.70307 6.652718,-1.76493 7.568079,-2.02282 7.940686,-2.23715 0.220033,-0.12656 1.113002,-0.43091 1.984375,-0.67633 0.871374,-0.24542 1.743845,-0.5006 1.938825,-0.56706 0.49131,-0.16749 -1.853695,-2.75342 -3.074845,-3.39075 -4.831046,-2.5214 -9.431049,-1.74027 -13.147141,2.23253 -1.430681,1.52952 -2.353765,3.41138 -2.792571,5.69313 -0.259395,1.34884 -0.239864,1.88777 0.119872,3.3073 0.753441,2.9731 1.585685,4.3258 3.81476,6.2004 3.15372,2.65219 6.340308,3.39767 9.652434,2.25813 2.480887,-0.85354 5.290021,-3.16892 6.363671,-5.24513 0.225243,-0.43557 0.602266,-0.86591 0.83783,-0.9563 0.762889,-0.29275 2.454098,-0.17415 2.826456,0.19821 0.199412,0.19941 0.740167,0.55783 1.20168,0.79649 1.67609,0.86674 1.766879,2.25509 0.306422,4.68581 -1.15397,1.9206 -1.932708,2.74046 -3.817245,4.01879 -0.873125,0.59226 -1.647031,1.15725 -1.719792,1.25552 -0.231367,0.31251 -1.289108,0.79744 -2.984452,1.36825 -1.297585,0.43688 -2.429396,0.56929 -5.349923,0.62585 -2.037291,0.0395 -4.001823,0.0157 -4.365625,-0.0528 z m 24.341667,-12.21812 c 0,-12.2881 0.12477,-14.09366 1.10697,-16.01893 0.81268,-1.59299 2.772227,-3.5261 4.363503,-4.30463 1.134618,-0.55512 1.94529,-0.72889 3.869409,-0.8294 3.847251,-0.20097 6.380176,0.63707 8.111808,2.68384 l 0.650648,0.76906 0.936852,-1.06658 c 0.515268,-0.58661 1.29404,-1.2425 1.730603,-1.45751 2.517727,-1.24002 7.17346,-1.30478 9.688952,-0.13477 1.884143,0.87636 3.816707,2.79395 4.687141,4.65082 l 0.705157,1.5043 0.07564,13.04117 0.07564,13.04116 -2.324595,-0.0766 -2.324595,-0.0766 -0.132291,-12.03854 c -0.150968,-13.7373 -0.09331,-13.38587 -2.459249,-14.99073 -1.713571,-1.16235 -2.972673,-1.33087 -4.626861,-0.61925 -1.725269,0.74219 -2.59143,1.68347 -3.235595,3.51624 -0.493885,1.40519 -0.526219,2.19668 -0.526219,12.88088 v 11.3837 h -2.373559 -2.373559 l -0.07384,-12.10469 c -0.07126,-11.68271 -0.09309,-12.14158 -0.62602,-13.16302 -0.92252,-1.76814 -3.738279,-3.26461 -5.515388,-2.93122 -1.389102,0.26059 -3.095686,1.68742 -3.831241,3.20318 -0.351115,0.72354 -0.738068,1.52228 -0.859896,1.77497 -0.121824,0.25269 -0.221501,5.58073 -0.221501,11.8401 v 11.38068 H 52.997606 50.748647 Z M 227.9313,81.950608 c -0.27255,-0.27255 -0.20984,-24.90248 0.0647,-25.42564 0.13263,-0.25269 0.4409,-1.027 0.68506,-1.72071 0.61013,-1.73343 2.74574,-4.00411 4.59737,-4.88814 1.35348,-0.64619 1.7748,-0.71125 4.66291,-0.72006 2.93764,-0.009 3.29605,0.0463 4.79417,0.73857 0.89054,0.41155 1.87635,1.09616 2.19073,1.52136 0.31437,0.4252 0.6573,0.77252 0.76207,0.77183 0.10481,-6.9e-4 0.65816,-0.43071 1.22968,-0.95558 1.57157,-1.44327 3.07256,-1.97999 6.00305,-2.14657 2.12474,-0.12079 2.85158,-0.0513 4.40788,0.42141 1.61126,0.48941 2.0855,0.7899 3.50266,2.21934 1.95639,1.97336 2.52955,3.01511 2.89372,5.25935 0.15852,0.97698 0.27435,6.60754 0.27549,13.39341 l 0.003,11.70782 h -2.38125 -2.38125 v -11.32906 c 0,-12.48142 -0.081,-13.24078 -1.59691,-14.9673 -1.05929,-1.20646 -3.20535,-2.11513 -4.4458,-1.88242 -1.98866,0.37308 -3.62987,1.64607 -4.43534,3.44024 -0.13068,0.29104 -0.2971,5.94651 -0.36986,12.5677 l -0.13229,12.03854 -2.30479,0.0763 -2.30478,0.0763 -0.0765,-11.85025 c -0.0885,-13.72027 -0.0156,-13.27924 -2.49616,-15.11694 -0.80438,-0.59595 -1.87409,-1.16076 -2.37709,-1.25512 -1.74065,-0.32655 -4.66546,1.28148 -5.57784,3.0666 -0.4308,0.84293 -0.47991,2.01246 -0.54714,13.03073 l -0.0738,12.10468 h -2.19718 c -1.20844,0 -2.27656,-0.0794 -2.37356,-0.17639 z m -323.960261,-0.52352 c -0.256002,-0.10677 -0.330729,-2.31474 -0.330729,-9.77213 0,-10.8105 -0.02726,-10.62042 2.148309,-14.97706 1.998156,-4.00136 6.14489,-7.12644 10.773357,-8.11906 1.71074,-0.36689 6.631146,-0.39016 8.477038,-0.0401 1.80204,0.34175 5.128824,1.7412 5.900013,2.48191 0.338153,0.32479 1.36394,1.23249 2.279523,2.0171 1.381945,1.18427 1.881759,1.86016 2.94264,3.97931 1.77505,3.54572 1.931475,4.89321 1.82688,15.73722 l -0.08422,8.73125 -2.684132,0.0751 c -2.181611,0.061 -2.763647,-0.004 -3.108854,-0.34963 -0.371605,-0.3716 -0.425114,-1.45644 -0.427863,-8.67405 -0.0034,-8.96011 -0.125323,-9.97803 -1.469806,-12.27221 -1.074597,-1.83366 -3.033861,-3.62329 -5.057291,-4.61942 -1.651814,-0.81319 -1.991387,-0.8827 -4.312116,-0.8827 -2.396634,0 -2.614865,0.049 -4.48878,1.00762 -2.85608,1.46107 -4.913565,3.98479 -5.937056,7.28242 -0.488894,1.57518 -0.56237,2.65677 -0.686028,10.0985 l -0.138492,8.33438 -2.645833,0.0498 c -1.455208,0.0274 -2.794662,-0.0123 -2.976563,-0.0882 z"
       id="path171" />
    <path
       style="fill:#000000;stroke-width:1"
       id="path133"
       d="" />
    <path
       style="fill:#000000;stroke-width:1"
       id="path39"
       d="" />
  </g>
</svg>
