<?xml version="1.0" encoding="UTF-8" standalone="no"?>
<!-- Generator: Adobe Illustrator 24.3.0, SVG Export Plug-In . SVG Version: 6.00 Build 0)  -->

<svg
   version="1.1"
   id="Layer_1"
   x="0px"
   y="0px"
   viewBox="0 0 593.2 174.5"
   style="enable-background:new 0 0 593.2 174.5;"
   xml:space="preserve"
   sodipodi:docname="orderup-logo-white.svg"
   inkscape:version="1.1.1 (3bf5ae0d25, 2021-09-20)"
   xmlns:inkscape="http://www.inkscape.org/namespaces/inkscape"
   xmlns:sodipodi="http://sodipodi.sourceforge.net/DTD/sodipodi-0.dtd"
   xmlns="http://www.w3.org/2000/svg"
   xmlns:svg="http://www.w3.org/2000/svg"><defs
   id="defs11" /><sodipodi:namedview
   id="namedview9"
   pagecolor="#505050"
   bordercolor="#ffffff"
   borderopacity="1"
   inkscape:pageshadow="0"
   inkscape:pageopacity="0"
   inkscape:pagecheckerboard="1"
   showgrid="false"
   inkscape:zoom="1.8981793"
   inkscape:cx="296.60001"
   inkscape:cy="87.452222"
   inkscape:current-layer="Layer_1" />
<style
   type="text/css"
   id="style2">
	.st0{fill:#F97C85;}
	.st1{fill-rule:evenodd;clip-rule:evenodd;fill:#F97C85;}
</style>
<path
   class="st0"
   d="M203.6,115.8c-10.3,0-17.2-7.8-17.2-21.3v-0.8c0-13.5,6.6-21.1,17.1-21.1s17.2,7.8,17.2,21.1v0.8  C220.7,107.7,214.1,115.8,203.6,115.8z M203.2,132.5c24.1,0,39.9-15.6,39.9-38.5v-0.8c0-23.1-16.9-37.3-39.6-37.3  c-22.3,0-39.4,15.2-39.4,37.9v0.9C164,116.9,179.1,132.5,203.2,132.5z M246.6,131.3h18.7v-25.8c0-8.7,6.3-12.3,17.6-12V76.2  c-8.4-0.1-14.2,3.4-17.6,11.6V76.9h-18.7L246.6,131.3z M305.2,132.5c8.2,0,14.3-4.5,17-10.1v8.8h18.7V53h-18.7v31.6  c-3.2-5.5-8.2-9.2-16.8-9.2c-12.9,0-23.2,9.9-23.2,28.4v0.8C282.3,123.5,292.6,132.5,305.2,132.5z M311.8,118.3  c-6.5,0-10.5-4.7-10.5-13.8v-0.8c0-9.5,3.8-14.1,10.8-14.1s10.7,4.9,10.7,14v0.8C322.8,113.6,318.6,118.3,311.8,118.3L311.8,118.3z   M373.4,132.5c16.5,0,26-7,27.6-19.2h-17.5c-0.7,3.6-3.3,6.4-9.5,6.4c-6.7,0-10.8-4.2-11.4-11.3h38.4v-4.9  c0-19.6-12.8-28.1-27.8-28.1c-16.5,0-29.5,11-29.5,28.5v0.8C343.8,122.6,356.3,132.5,373.4,132.5z M362.9,97.9  c0.9-6.6,4.8-10.2,10.4-10.2c6,0,9.3,3.6,9.6,10.2H362.9z M403.9,131.3h18.7v-25.8c0-8.7,6.3-12.3,17.6-12V76.2  c-8.4-0.1-14.2,3.4-17.6,11.6V76.9h-18.7L403.9,131.3z M477.5,132.5c20.6,0,33.3-10.1,33.3-31.7V56.9h-21.6v42.9  c0,11.1-2.8,15.9-11.7,15.9c-9.1,0-11.7-5.1-11.7-15.6V56.9h-21.4v44.2C444.4,121.9,456.4,132.5,477.5,132.5z M517.3,149.5H536  v-26.2c2.7,5.4,8.7,9.2,16.9,9.2c12.8,0,23.2-9.4,23.2-28.1v-0.8c0-18.6-10.3-28.2-23.1-28.2c-7-0.1-13.4,3.5-17,9.6v-8.1h-18.7  V149.5z M546.3,118.3c-6.8,0-10.8-4.7-10.8-13.9v-0.8c0-9.2,4.1-14,10.8-14c6.6,0,10.8,4.6,10.8,14.1v0.8  C557,113.4,553.3,118.3,546.3,118.3L546.3,118.3z"
   id="path4"
   style="fill:#ffffff" />
<path
   class="st1"
   d="M98.9,0L153,54.1l-17.6,17.6L98.2,34.6L17,115.8l-17-17l81.2-81.1l0.2-0.2L98.9,0z M70.5,123  c15.5,15.5,40.6,15.5,56.1,0s15.5-40.6,0-56.1s-40.6-15.5-56.1,0c0,0,0,0,0,0C55.1,82.5,55.1,107.6,70.5,123z"
   id="path6"
   style="fill:#ffffff" />
</svg>
