<?xml version="1.0" encoding="UTF-8" standalone="no"?>
<!-- Created with Inkscape (http://www.inkscape.org/) -->

<svg
   width="442.3775mm"
   height="538.13849mm"
   viewBox="0 0 442.3775 538.13849"
   version="1.1"
   id="svg5"
   xmlns="http://www.w3.org/2000/svg"
   xmlns:svg="http://www.w3.org/2000/svg">
  <defs
     id="defs2" />
  <g
     id="layer1"
     transform="translate(-317.62054,174.48735)">
    <path
       style="fill:#ffffff;stroke-width:1"
       d="m 317.71194,362.98851 c 0.10098,-0.42272 0.28795,-1.72109 0.41549,-2.88525 0.17282,-1.57737 20.14286,-69.79738 78.38093,-267.758328 l 78.14903,-265.641662 0.74733,-0.0866 0.74733,-0.0867 -0.15953,6.70124 c -0.0877,3.68568 -0.19074,49.08749 -0.2289,100.892904 -0.0556,75.4734755 -10e-4,95.03293 0.27489,98.424997 1.92382,23.656162 5.92159,41.01582 14.47115,62.838539 7.81588,19.95003 17.16199,35.47972 31.47119,52.2932 3.56607,4.19018 14.81627,15.47641 18.93319,18.9938 14.74551,12.59827 29.19839,21.47253 47.80247,29.35137 23.53887,9.96868 48.83756,15.24913 73.05903,15.24913 h 5.11529 l -0.0837,0.68873 c -0.079,0.65019 -9.75918,4.90048 -172.87539,75.90502 -114.53351,49.85646 -173.18679,75.26027 -173.96355,75.34679 -0.64452,0.0718 -1.45715,0.22299 -1.80584,0.33597 -0.5932,0.19222 -0.62218,0.15597 -0.4504,-0.56314 z m 339.88334,-245.5315 c -11.38775,-1.3603 -24.12971,-5.1495 -34.06674,-10.13079 -28.01856,-14.045272 -45.27397,-39.060789 -50.73021,-73.54459 -1.83708,-11.610458 -1.7218,-4.180472 -1.7218,-110.970794 0,-83.317156 0.0518,-96.594016 0.37798,-96.920206 0.32616,-0.32617 13.27513,-0.37798 94.46075,-0.37798 h 94.08277 l -0.10396,97.565101 c -0.0669,62.829167 -0.20233,99.449084 -0.38031,102.856767 -0.78076,14.948399 -6.04462,32.752946 -13.53259,45.772915 -4.03439,7.014924 -8.58922,12.96422 -14.29036,18.665321 -5.99241,5.992442 -12.69222,11.007486 -20.25282,15.159986 -16.58551,9.10926 -37.89707,13.82903 -53.84271,11.92427 z"
       id="path153" />
    <path
       style="fill:#000000;stroke-width:1"
       id="path115"
       d="" />
    <path
       style="fill:#000000;stroke-width:1"
       id="path77"
       d="" />
    <path
       style="fill:#000000;stroke-width:1"
       id="path39"
       d="" />
  </g>
</svg>
